<?xml version="1.0" standalone="no"?><!DOCTYPE svg PUBLIC "-//W3C//DTD SVG 1.1//EN" "http://www.w3.org/Graphics/SVG/1.1/DTD/svg11.dtd"><svg t="1742370068733" class="icon" viewBox="0 0 1024 1024" version="1.1" xmlns="http://www.w3.org/2000/svg" p-id="9238" xmlns:xlink="http://www.w3.org/1999/xlink" width="200" height="200"><path d="M790.318359 631.70279l-3.749304 33.663753a91.333053 91.333053 0 0 1-29.91445 67.267519 116.796329 116.796329 0 0 1-67.267519 14.92723h-14.92723a89.068474 89.068474 0 0 1-41.092375-11.017955l-11.017956-3.749305-63.518214 74.75613 212.99048 212.99048 3.749304-198.3332 209.351156-3.749304-194.603892-186.755348zM390.41256 740.072682a272.769388 272.769388 0 0 1-123.347113 0c-25.935188-14.087386-41.802244-41.512298-41.092376-71.016823v-41.322333L39.087747 822.047472h209.351156v201.802556l213.040471-216.729787-67.267519-71.016823-3.799295 3.969264z" fill="#D36748" p-id="9239"></path><path d="M614.630957 713.907537c7.488611-7.488611 26.165145 0 44.84168 3.749304 15.747078 5.438991 32.044054 9.128306 48.590984 11.017956 44.84168 0 67.267519-52.340288 67.267519-104.670579 0-22.425839 14.987219-33.603765 41.092375-52.340288l22.425839-11.017956c33.663754-22.425839 48.590984-37.353069 48.590984-74.756129a93.650623 93.650623 0 0 0-22.425839-52.340289 151.201945 151.201945 0 0 1-18.676534-33.603765c-3.749304-11.017956 7.488611-29.914449 14.92723-48.590984a118.370037 118.370037 0 0 0 22.425839-56.079594c0-44.84168-48.590984-63.518214-85.944053-82.194749l-7.488611-3.749305c-14.987219-7.488611-14.987219-22.425839-18.676535-48.590984-0.389928-19.196438-4.119236-38.172917-11.017955-56.079594-18.676535-44.84168-63.518214-37.353069-100.871284-29.91445a103.633771 103.633771 0 0 1-33.603765 3.749304c-26.165145 0-44.84168-18.676535-67.267519-44.841679l-3.749304-7.488611A79.714209 79.714209 0 0 0 510.230328 0a63.988127 63.988127 0 0 0-48.590984 26.165145 447.368992 447.368992 0 0 0-44.84168 48.590984 656.446198 656.446198 0 0 0-100.871283-7.48861c-71.016823 3.749304-71.016823 89.693358-71.016823 115.688534 0 22.425839-26.165145 41.102374-74.756129 59.778908a44.674711 44.674711 0 0 0-26.165146 26.165145c-11.017956 22.425839 0 48.590984 22.425839 97.181969 15.30716 33.043869 7.788555 72.16661-18.676534 97.181968-3.749304 3.749304-7.488611 11.017956-11.017956 14.987219A49.033902 49.033902 0 0 0 132.970328 523.092942a108.11094 108.11094 0 0 0 74.756129 52.340288c29.914449 7.488611 44.84168 33.603765 44.84168 74.756129 0 33.603765 7.488611 71.016823 52.340288 71.016823 16.286978 0.479911 32.573956-0.779855 48.590984-3.749304 18.676535 0 33.663754-3.749304 48.590984-3.749304a100.883281 100.883281 0 0 1 41.092376 33.663754 168.200791 168.200791 0 0 0 52.340288 41.102373c3.749304 0 7.488611 3.749304 11.017956 3.749304 37.13311 0.189965 74.486179-37.223093 108.089944-78.315468zM270.854744 396.076509c0-134.155108 108.749822-242.90493 242.904929-242.90493S756.654605 261.931399 756.654605 396.076509c0 134.155108-108.749822 242.90493-242.90493 242.90493-133.87516 0.26995-242.624982-108.029955-242.904929-241.905115 0.009998-0.339937 0.009998-0.669876 0.009998-0.999815z" fill="#D36748" p-id="9240"></path><path d="M569.899257 375.530322c34.463605-8.398442 58.199201-39.982581 56.689481-75.426005a85.547127 85.547127 0 0 0-30.744295-69.197161 128.816099 128.816099 0 0 0-83.134575-24.95537 117.148264 117.148264 0 0 0-82.144758 28.314747 111.88424 111.88424 0 0 0-37.962956 79.715209H444.012615a70.812861 70.812861 0 0 1 20.656167-47.541179 69.483108 69.483108 0 0 1 48.530995-15.867056 67.607456 67.607456 0 0 1 46.611352 13.937414 51.820385 51.820385 0 0 1 14.877239 39.392691 50.260674 50.260674 0 0 1-16.526933 39.8826 71.041818 71.041818 0 0 1-47.541179 13.937413H486.104805V397.116316h25.015358c18.286607-1.299759 36.463234 3.799295 51.400463 14.437322a52.713219 52.713219 0 0 1 18.736524 44.681709 57.979242 57.979242 0 0 1-17.736709 42.752067 75.540984 75.540984 0 0 1-53.330105 19.226433 69.391125 69.391125 0 0 1-48.970914-17.296791 70.590902 70.590902 0 0 1-22.585809-53.330104h-52.830198a120.88757 120.88757 0 0 0 40.322519 88.143645 127.416358 127.416358 0 0 0 84.564309 26.885011c32.703932 1.219774 64.697995-9.728195 89.803337-30.744295a101.870098 101.870098 0 0 0 32.673938-77.785567 72.741503 72.741503 0 0 0-17.296791-49.970728 96.129164 96.129164 0 0 0-45.97147-28.584696z" fill="#D36748" p-id="9241"></path></svg>