<?xml version="1.0" standalone="no"?><!DOCTYPE svg PUBLIC "-//W3C//DTD SVG 1.1//EN" "http://www.w3.org/Graphics/SVG/1.1/DTD/svg11.dtd"><svg t="1742370086071" class="icon" viewBox="0 0 1024 1024" version="1.1" xmlns="http://www.w3.org/2000/svg" p-id="2454" xmlns:xlink="http://www.w3.org/1999/xlink" width="200" height="200"><path d="M789.52 632.38L785.78 666a91.184 91.184 0 0 1-29.88 67.18 116.672 116.672 0 0 1-67.18 14.91h-14.91a89.068 89.068 0 0 1-41.04-11l-11-3.74L558.33 808l212.76 212.7 3.74-198.07 209.07-3.74-194.38-186.51zM390.14 740.6c-40.51 9.4-82.63 9.4-123.13 0-25.9-14.07-41.75-41.45-41.04-70.92v-41.26L39.34 822.47h209.07V1024l212.76-216.45-67.18-70.92-3.85 3.97z" fill="#d4237a" p-id="2455"></path><path d="M613.85 714.46c7.48-7.48 26.13 0 44.79 3.74 15.73 5.43 32 9.12 48.53 11 44.79 0 67.18-52.27 67.18-104.54 0-22.39 14.91-33.56 41.04-52.27l22.39-11c33.56-22.39 48.53-37.3 48.53-74.66a93.55 93.55 0 0 0-22.39-52.27 150.997 150.997 0 0 1-18.65-33.56c-3.74-11 7.48-29.88 14.91-48.53a118.19 118.19 0 0 0 22.39-56.01c0-44.79-48.53-63.44-85.83-82.09l-7.48-3.74c-14.91-7.48-14.91-22.39-18.65-48.53-0.39-19.17-4.12-38.12-11-56.01-18.65-44.79-63.44-37.3-100.74-29.88a103.402 103.402 0 0 1-33.62 3.74c-26.13 0-44.79-18.65-67.18-44.79l-3.74-7.48a79.57 79.57 0 0 0-44.79-26.13 63.9 63.9 0 0 0-48.53 26.13 448.221 448.221 0 0 0-44.79 48.53 656.521 656.521 0 0 0-100.79-7.48c-70.92 3.74-70.92 89.57-70.92 115.54 0 22.39-26.13 41.04-74.61 59.7A44.58 44.58 0 0 0 143.77 270c-11 22.39 0 48.53 22.39 97.05 15.3 33 7.79 72.08-18.65 97.05-3.74 3.74-7.48 11-11 14.97a49.035 49.035 0 0 0-3.74 44.79 107.926 107.926 0 0 0 74.66 52.27c29.88 7.48 44.79 33.56 44.79 74.66 0 33.56 7.48 70.92 52.27 70.92 16.26 0.48 32.53-0.78 48.53-3.74 18.65 0 33.56-3.74 48.53-3.74a100.755 100.755 0 0 1 41.04 33.62 167.555 167.555 0 0 0 52.27 41.04c3.74 0 7.48 3.74 11 3.74 37.29 0.18 74.65-37.12 107.99-78.17z m-343.1-317.4c0-133.97 108.61-242.58 242.58-242.58S755.9 263.09 755.9 397.06c0 133.97-108.61 242.58-242.58 242.58-133.7 0.27-242.3-107.89-242.58-241.59 0.01-0.33 0.01-0.66 0.01-0.99z" fill="#d4237a" p-id="2456"></path><path d="M458.03 250.32a210.06 210.06 0 0 1-50.62 21.02v54.14a195.298 195.298 0 0 0 82.2-45.12v292.21h54.63V214.95h-41.1a208.3 208.3 0 0 1-45.11 35.37z" fill="#d4237a" p-id="2457"></path></svg>