<?xml version="1.0" standalone="no"?><!DOCTYPE svg PUBLIC "-//W3C//DTD SVG 1.1//EN" "http://www.w3.org/Graphics/SVG/1.1/DTD/svg11.dtd"><svg t="1742370022535" class="icon" viewBox="0 0 1024 1024" version="1.1" xmlns="http://www.w3.org/2000/svg" p-id="7906" xmlns:xlink="http://www.w3.org/1999/xlink" width="200" height="200"><path d="M389.48991 738.259761a272.028587 272.028587 0 0 1-122.979976 0c-25.873683-14.056568-41.699819-41.399893-40.989993-70.832707v-41.209939L39.11545 820.029797h208.819019v201.290857l212.448133-216.18722-67.09362-70.832707-3.799072 3.959034zM788.172575 630.166151l-3.739087 33.571804a91.05477 91.05477 0 0 1-29.842714 67.093619 116.549546 116.549546 0 0 1-67.09362 14.896364h-14.896363a89.120242 89.120242 0 0 1-40.989993-10.987318l-10.987317-3.739087-63.364531 74.571794 212.498121 212.448133 3.739087-197.831702 208.819019-3.739087-194.142602-186.28452z" fill="#1296db" p-id="7907"></path><path d="M612.92536 712.156134c7.468177-7.478174 26.103627 0 44.72908 3.739087a227.584437 227.584437 0 0 0 48.468167 10.987317c44.72908 0 67.09362-52.207254 67.09362-104.414508 0-22.36454 14.896363-33.521816 40.989992-52.207254l22.36454-10.987317c33.521816-22.36454 48.468167-37.260903 48.468167-74.571794a93.463182 93.463182 0 0 0-22.36454-52.207254 151.079115 151.079115 0 0 1-18.625453-33.521816c-3.739087-10.987318 7.468177-29.842714 14.896364-48.468167a118.015188 118.015188 0 0 0 22.364539-55.946342c0-44.72908-48.468167-63.36453-85.72907-81.989983l-7.468176-3.739087c-14.896363-7.478174-14.896363-22.36454-18.625453-48.468167-0.399902-19.145326-4.118994-38.070705-10.987318-55.946341-18.625453-44.72908-63.36453-37.260903-100.675421-29.842714a103.195806 103.195806 0 0 1-33.581801 3.739087c-26.103627 0-44.72908-18.625453-67.09362-44.72908l-3.739087-7.478174A79.569574 79.569574 0 0 0 508.68081 0a63.766432 63.766432 0 0 0-48.468167 26.103627 447.07685 447.07685 0 0 0-44.729079 48.468167 655.677922 655.677922 0 0 0-100.615436-7.478174c-70.832707 3.739087-70.832707 89.45816-70.832707 115.401825 0 22.36454-26.103627 40.989993-74.571794 59.625443a44.665095 44.665095 0 0 0-26.103627 26.103627c-10.987318 22.36454 0 48.468167 22.36454 96.936334 15.266273 32.961953 7.768103 71.982426-18.625453 96.936334-3.739087 3.739087-7.468177 10.987318-10.987317 14.946351a48.982041 48.982041 0 0 0-3.739088 44.72908 107.76469 107.76469 0 0 0 74.571794 52.207254c29.842714 7.478174 44.72908 33.521816 44.72908 74.571794 0 33.521816 7.468177 70.832707 52.207254 70.832707 16.246034 0.479883 32.492067-0.77981 48.468167-3.739087 18.625453 0 33.521816-3.739087 48.468167-3.739087a100.665423 100.665423 0 0 1 40.989993 33.571804 167.309153 167.309153 0 0 0 52.207254 40.989992c3.739087 0 7.468177 3.739087 10.987318 3.739087 37.090945 0.209949 74.411833-37.050954 107.923651-78.050944zM270.029075 395.30349c0-133.807332 108.473517-242.290847 242.290847-242.290847s242.290847 108.473517 242.290847 242.290847c0 133.807332-108.473517 242.290847-242.290847 242.290847-133.537398 0.269934-242.010915-107.753693-242.290847-241.301088v-1.159717 0.169958z" fill="#1296db" p-id="7908"></path><path d="M520.827845 443.601699a476.821588 476.821588 0 0 0 70.892692-54.956583 118.553056 118.553056 0 0 0 33.521816-80.950237 96.261499 96.261499 0 0 0-31.162392-73.801982 116.04067 116.04067 0 0 0-81.000225-28.243104 111.946669 111.946669 0 0 0-87.918535 36.930983 131.552883 131.552883 0 0 0-32.97195 91.987542h52.207254c-0.839795-22.334547 5.538648-44.339175 18.18556-62.754679a56.818128 56.818128 0 0 1 48.848074-21.984632 67.423539 67.423539 0 0 1 46.48865 14.396485 55.328492 55.328492 0 0 1 15.826137 43.139468 83.487617 83.487617 0 0 1-23.464272 56.056314 359.072336 359.072336 0 0 1-48.848074 39.290408 432.762345 432.762345 0 0 0-76.931218 62.264798 130.084241 130.084241 0 0 0-34.021694 89.568133h235.742446v-45.99877h-171.058238a167.40213 167.40213 0 0 1 65.663969-64.944144z" fill="#1296db" p-id="7909"></path></svg>