<svg xmlns="http://www.w3.org/2000/svg" xmlns:xlink="http://www.w3.org/1999/xlink" fill="none" version="1.1" width="32.31521224975586" height="32" viewBox="0 0 32.31521224975586 32"><defs><clipPath id="master_svg0_1258_43359"><rect x="0" y="0" width="32.31521224975586" height="32" rx="0"/></clipPath><mask id="master_svg1_1258_43359/1200_49842" style="mask-type:alpha" maskUnits="objectBoundingBox"><g><g><path d="M7.6002197265625,8.03714849296875L10.0211410265625,12.22775779296875L27.1787927265625,12.22775779296875L29.3773077265625,8.41956709296875L11.779627326562501,8.41956709296875L13.979736826562501,4.60977749296875L11.779627326562501,0.79998779296875L7.6002197265625,8.03714849296875Z" fill="#000000" fill-opacity="1" style="mix-blend-mode:passthrough"/></g></g></mask><linearGradient x1="0.08864956349134445" y1="0.5126127600669861" x2="0.8483188152313232" y2="0.5126127600669861" id="master_svg2_3_0415"><stop offset="0%" stop-color="#808080" stop-opacity="1"/><stop offset="0%" stop-color="#888888" stop-opacity="1"/><stop offset="1.9999999552965164%" stop-color="#A8A8A8" stop-opacity="1"/><stop offset="3.999999910593033%" stop-color="#C3C3C3" stop-opacity="1"/><stop offset="5.000000074505806%" stop-color="#D9D9D9" stop-opacity="1"/><stop offset="7.999999821186066%" stop-color="#EAEAEA" stop-opacity="1"/><stop offset="10.000000149011612%" stop-color="#F6F6F6" stop-opacity="1"/><stop offset="14.000000059604645%" stop-color="#FDFDFD" stop-opacity="1"/><stop offset="25%" stop-color="#FFFFFF" stop-opacity="1"/><stop offset="100%" stop-color="#FFFFFF" stop-opacity="1"/></linearGradient><mask id="master_svg3_1258_43359/1200_49846" style="mask-type:alpha" maskUnits="objectBoundingBox"><g><g transform="matrix(0.8660253882408142,-0.5,0.5,0.8660253882408142,-1.4734333500377943,1.8157709520988305)"><rect x="2.6515579223632812" y="3.6573495864868164" width="24.574026107788086" height="20.785036087036133" rx="0" fill="url(#master_svg2_3_0415)" fill-opacity="1" style="mix-blend-mode:passthrough"/></g></g></mask><linearGradient x1="0.08871467411518097" y1="0.5126127600669861" x2="0.848383903503418" y2="0.5126127600669861" id="master_svg4_830_30504"><stop offset="0%" stop-color="#615CED" stop-opacity="1"/><stop offset="0%" stop-color="#6863ED" stop-opacity="1"/><stop offset="1.9999999552965164%" stop-color="#8B88F1" stop-opacity="1"/><stop offset="2.9999999329447746%" stop-color="#ABA8F5" stop-opacity="1"/><stop offset="5.000000074505806%" stop-color="#C5C3F8" stop-opacity="1"/><stop offset="5.999999865889549%" stop-color="#DAD9FA" stop-opacity="1"/><stop offset="9.000000357627869%" stop-color="#EBEAFC" stop-opacity="1"/><stop offset="10.999999940395355%" stop-color="#F6F6FE" stop-opacity="1"/><stop offset="15.000000596046448%" stop-color="#FDFDFE" stop-opacity="1"/><stop offset="25%" stop-color="#FFFFFF" stop-opacity="1"/><stop offset="100%" stop-color="#FFFFFF" stop-opacity="1"/></linearGradient><mask id="master_svg5_1258_43359/1200_49851" style="mask-type:alpha" maskUnits="objectBoundingBox"><g><g><path d="M2.9999847412109375,8.399993896484375L11.798824341210938,23.639154896484374L7.398605341210938,23.639154896484374L5.200094441210938,27.448947896484373L13.557309741210938,27.450543896484376L15.976631741210937,23.258335896484375L7.397003141210938,8.399993896484375L2.9999847412109375,8.399993896484375Z" fill="#000000" fill-opacity="1" style="mix-blend-mode:passthrough"/></g></g></mask><linearGradient x1="0.5097598433494568" y1="0.8950770497322083" x2="0.5097598433494568" y2="-0.004044389817863703" id="master_svg6_3_0406"><stop offset="0%" stop-color="#808080" stop-opacity="1"/><stop offset="0%" stop-color="#888888" stop-opacity="1"/><stop offset="1.9999999552965164%" stop-color="#A8A8A8" stop-opacity="1"/><stop offset="3.999999910593033%" stop-color="#C3C3C3" stop-opacity="1"/><stop offset="5.000000074505806%" stop-color="#D9D9D9" stop-opacity="1"/><stop offset="7.999999821186066%" stop-color="#EAEAEA" stop-opacity="1"/><stop offset="10.000000149011612%" stop-color="#F6F6F6" stop-opacity="1"/><stop offset="14.000000059604645%" stop-color="#FDFDFD" stop-opacity="1"/><stop offset="25%" stop-color="#FFFFFF" stop-opacity="1"/><stop offset="100%" stop-color="#FFFFFF" stop-opacity="1"/></linearGradient><mask id="master_svg7_1258_43359/1200_49855" style="mask-type:alpha" maskUnits="objectBoundingBox"><g><g transform="matrix(0.5,-0.8660253882408142,0.8660253882408142,0.5,-22.272977924624797,6.798347993043535)"><rect x="-5.2489471435546875" y="22.688138961791992" width="22.986745834350586" height="20.762632369995117" rx="0" fill="url(#master_svg6_3_0406)" fill-opacity="1" style="mix-blend-mode:passthrough"/></g></g></mask><linearGradient x1="0.5098294615745544" y1="0.8950770497322083" x2="0.5098294615745544" y2="-0.004044389817863703" id="master_svg8_3_0402"><stop offset="0%" stop-color="#615CED" stop-opacity="1"/><stop offset="0%" stop-color="#6863ED" stop-opacity="1"/><stop offset="1.9999999552965164%" stop-color="#8B88F1" stop-opacity="1"/><stop offset="2.9999999329447746%" stop-color="#ABA8F5" stop-opacity="1"/><stop offset="5.000000074505806%" stop-color="#C5C3F8" stop-opacity="1"/><stop offset="5.999999865889549%" stop-color="#DAD9FA" stop-opacity="1"/><stop offset="9.000000357627869%" stop-color="#EBEAFC" stop-opacity="1"/><stop offset="10.999999940395355%" stop-color="#F6F6FE" stop-opacity="1"/><stop offset="15.000000596046448%" stop-color="#FDFDFE" stop-opacity="1"/><stop offset="25%" stop-color="#FFFFFF" stop-opacity="1"/><stop offset="100%" stop-color="#FFFFFF" stop-opacity="1"/></linearGradient><mask id="master_svg9_1258_43359/1200_49860" style="mask-type:alpha" maskUnits="objectBoundingBox"><g><g><path d="M22.577935247265625,12.601605304315624L13.999908447265625,27.459945103515626L16.198416447265625,31.268139103515626L24.997256447265627,16.028978103515627L27.195766447265626,19.838768003515625L31.595985447265626,19.838768003515625L27.418174447265624,12.600006103515625L22.577935247265625,12.601605304315624Z" fill="#000000" fill-opacity="1" style="mix-blend-mode:passthrough"/></g></g></mask><linearGradient x1="0.49193596839904785" y1="0.004498157184571028" x2="0.49193596839904785" y2="1.0044981241226196" id="master_svga_3_0376"><stop offset="0%" stop-color="#808080" stop-opacity="1"/><stop offset="0%" stop-color="#888888" stop-opacity="1"/><stop offset="1.9999999552965164%" stop-color="#A8A8A8" stop-opacity="1"/><stop offset="3.999999910593033%" stop-color="#C3C3C3" stop-opacity="1"/><stop offset="5.000000074505806%" stop-color="#D9D9D9" stop-opacity="1"/><stop offset="7.999999821186066%" stop-color="#EAEAEA" stop-opacity="1"/><stop offset="10.000000149011612%" stop-color="#F6F6F6" stop-opacity="1"/><stop offset="14.000000059604645%" stop-color="#FDFDFD" stop-opacity="1"/><stop offset="25%" stop-color="#FFFFFF" stop-opacity="1"/><stop offset="100%" stop-color="#FFFFFF" stop-opacity="1"/></linearGradient><mask id="master_svgb_1258_43359/1200_49864" style="mask-type:alpha" maskUnits="objectBoundingBox"><g><g><rect x="13.999908447265625" y="12.600006103515625" width="17.59607696533203" height="18.668132781982422" rx="0" fill="url(#master_svga_3_0376)" fill-opacity="1" style="mix-blend-mode:passthrough"/></g></g></mask><linearGradient x1="0.49193596839904785" y1="0.004498157184571028" x2="0.49193596839904785" y2="1.0044981241226196" id="master_svgc_508_26414"><stop offset="0%" stop-color="#615CED" stop-opacity="1"/><stop offset="0%" stop-color="#6863ED" stop-opacity="1"/><stop offset="1.9999999552965164%" stop-color="#8B88F1" stop-opacity="1"/><stop offset="2.9999999329447746%" stop-color="#ABA8F5" stop-opacity="1"/><stop offset="5.000000074505806%" stop-color="#C5C3F8" stop-opacity="1"/><stop offset="5.999999865889549%" stop-color="#DAD9FA" stop-opacity="1"/><stop offset="9.000000357627869%" stop-color="#EBEAFC" stop-opacity="1"/><stop offset="10.999999940395355%" stop-color="#F6F6FE" stop-opacity="1"/><stop offset="15.000000596046448%" stop-color="#FDFDFE" stop-opacity="1"/><stop offset="25%" stop-color="#FFFFFF" stop-opacity="1"/><stop offset="100%" stop-color="#FFFFFF" stop-opacity="1"/></linearGradient><mask id="master_svgd_1258_43359/1200_49869" style="mask-type:alpha" maskUnits="objectBoundingBox"><g><g><path d="M13.960694,27.428568L16.160805,23.618782L22.540321,12.57183L27.378962,12.57183C27.378962,12.57183,31.55677,19.80899,31.55677,19.80899L27.156551,19.80899L24.958038,15.9992L16.159203,31.238359L13.959093,27.428568L13.960694,27.428568ZM2.9633472,8.3796206L7.3619676,8.3796206L9.5604773,12.189411L15.938396,23.239563L13.520675,27.431767L5.1634588,27.431767C5.1634588,27.431767,7.3635683,23.618782,7.3635683,23.618782L11.762189,23.618782C11.762189,23.618782,2.9633496,8.3796186,2.9633472,8.3796206ZM7.5811772,7.9988012L11.760585,0.76164085L13.960694,4.5714307L11.760585,8.3812199L29.358263,8.3812199L27.159758,12.189411L10.002098,12.189411L7.5811772,7.9988012ZM11.760585,0.0000024415281C11.624577,0.0000024415281,11.493371,0.036804818,11.379765,0.10240746C11.266158,0.16801132,11.168553,0.26401585,11.099751,0.38082099L7.3603654,6.8579435L6.9203434,7.6179814L2.9617465,7.6179814C2.8257401,7.6179814,2.6945336,7.6547828,2.5809281,7.720386C2.4673228,7.7859912,2.3697178,7.8819938,2.3025146,7.9988012L0.102405,11.808591C0.035201948,11.925397,0,12.058203,0,12.189411C0,12.320619,0.03360153,12.453423,0.102405,12.57023L4.2818136,19.808994L2.3025146,23.237961C2.2353117,23.356369,2.2001097,23.487576,2.2001097,23.618782C2.2001097,23.74999,2.2353117,23.882792,2.3025146,23.999601L4.5026245,27.809389C4.5698271,27.926199,4.6674323,28.022196,4.7810378,28.087805C4.8962431,28.153408,5.0258498,28.190208,5.1618562,28.190208L13.519073,28.190208L15.498372,31.619179C15.634379,31.854393,15.885589,32,16.157602,32L20.556225,32C20.692232,32,20.823435,31.963198,20.937044,31.897593C21.050648,31.831987,21.148254,31.735983,21.215456,31.619179L25.394865,24.380423L29.353464,24.380423C29.489471,24.380423,29.620678,24.343618,29.734283,24.278011C29.847887,24.21241,29.945494,24.116407,30.012693,23.999601L32.212803,20.18981C32.281609,20.073006,32.315212,19.940199,32.315212,19.80899C32.315212,19.677782,32.281612,19.544977,32.212803,19.428171L28.475019,12.952647L28.034994,12.189409L30.014294,8.7620373C30.081501,8.6452322,30.116701,8.5124264,30.116701,8.381218C30.116701,8.2500105,30.083099,8.1172056,30.014294,8.0003977L27.814184,4.1906085C27.746979,4.073802,27.649374,3.9777973,27.535772,3.9121947C27.422167,3.8465908,27.29096,3.8097897,27.154951,3.8097897L18.796133,3.8097897L16.816833,0.38081858C16.680826,0.14560662,16.429615,0,16.157602,0L11.758983,0L11.760585,0.0000024415281Z" fill="#000000" fill-opacity="1" style="mix-blend-mode:passthrough"/></g></g></mask><linearGradient x1="0.8696300387382507" y1="0.5055983066558838" x2="0.14211924374103546" y2="0.5055983066558838" id="master_svge_3_0367"><stop offset="0%" stop-color="#615CED" stop-opacity="1"/><stop offset="17.000000178813934%" stop-color="#6156EC" stop-opacity="1"/><stop offset="37.99999952316284%" stop-color="#6147E9" stop-opacity="1"/><stop offset="61.000001430511475%" stop-color="#622FE4" stop-opacity="1"/><stop offset="62.00000047683716%" stop-color="#632DE4" stop-opacity="1"/><stop offset="100%" stop-color="#632DE4" stop-opacity="1"/></linearGradient><mask id="master_svgf_1258_43359/1200_49874" style="mask-type:alpha" maskUnits="objectBoundingBox"><g><g><path d="M13.960694,27.428568L16.160805,23.618782L22.540321,12.57183L27.378962,12.57183C27.378962,12.57183,31.55677,19.80899,31.55677,19.80899L27.156551,19.80899L24.958038,15.9992L16.159203,31.238359L13.959093,27.428568L13.960694,27.428568ZM2.9633472,8.3796206L7.3619676,8.3796206L9.5604773,12.189411L15.938396,23.239563L13.520675,27.431767L5.1634588,27.431767C5.1634588,27.431767,7.3635683,23.618782,7.3635683,23.618782L11.762189,23.618782C11.762189,23.618782,2.9633496,8.3796186,2.9633472,8.3796206ZM7.5811772,7.9988012L11.760585,0.76164085L13.960694,4.5714307L11.760585,8.3812199L29.358263,8.3812199L27.159758,12.189411L10.002098,12.189411L7.5811772,7.9988012ZM11.760585,0.0000024415281C11.624577,0.0000024415281,11.493371,0.036804818,11.379765,0.10240746C11.266158,0.16801132,11.168553,0.26401585,11.099751,0.38082099L7.3603654,6.8579435L6.9203434,7.6179814L2.9617465,7.6179814C2.8257401,7.6179814,2.6945336,7.6547828,2.5809281,7.720386C2.4673228,7.7859912,2.3697178,7.8819938,2.3025146,7.9988012L0.102405,11.808591C0.035201948,11.925397,0,12.058203,0,12.189411C0,12.320619,0.03360153,12.453423,0.102405,12.57023L4.2818136,19.808994L2.3025146,23.237961C2.2353117,23.356369,2.2001097,23.487576,2.2001097,23.618782C2.2001097,23.74999,2.2353117,23.882792,2.3025146,23.999601L4.5026245,27.809389C4.5698271,27.926199,4.6674323,28.022196,4.7810378,28.087805C4.8962431,28.153408,5.0258498,28.190208,5.1618562,28.190208L13.519073,28.190208L15.498372,31.619179C15.634379,31.854393,15.885589,32,16.157602,32L20.556225,32C20.692232,32,20.823435,31.963198,20.937044,31.897593C21.050648,31.831987,21.148254,31.735983,21.215456,31.619179L25.394865,24.380423L29.353464,24.380423C29.489471,24.380423,29.620678,24.343618,29.734283,24.278011C29.847887,24.21241,29.945494,24.116407,30.012693,23.999601L32.212803,20.18981C32.281609,20.073006,32.315212,19.940199,32.315212,19.80899C32.315212,19.677782,32.281612,19.544977,32.212803,19.428171L28.475019,12.952647L28.034994,12.189409L30.014294,8.7620373C30.081501,8.6452322,30.116701,8.5124264,30.116701,8.381218C30.116701,8.2500105,30.083099,8.1172056,30.014294,8.0003977L27.814184,4.1906085C27.746979,4.073802,27.649374,3.9777973,27.535772,3.9121947C27.422167,3.8465908,27.29096,3.8097897,27.154951,3.8097897L18.796133,3.8097897L16.816833,0.38081858C16.680826,0.14560662,16.429615,0,16.157602,0L11.758983,0L11.760585,0.0000024415281Z" fill="#000000" fill-opacity="1" style="mix-blend-mode:passthrough"/></g></g></mask><linearGradient x1="0.0021626974921673536" y1="0.5047190189361572" x2="1.0021626949310303" y2="0.5047190189361572" id="master_svgg_3_0362"><stop offset="0%" stop-color="#FFFFFF" stop-opacity="1"/><stop offset="2.9999999329447746%" stop-color="#F6F6F6" stop-opacity="1"/><stop offset="9.000000357627869%" stop-color="#DDDDDD" stop-opacity="1"/><stop offset="15.999999642372131%" stop-color="#B5B5B5" stop-opacity="1"/><stop offset="23.999999463558197%" stop-color="#7E7E7E" stop-opacity="1"/><stop offset="33.000001311302185%" stop-color="#393939" stop-opacity="1"/><stop offset="40.00000059604645%" stop-color="#000000" stop-opacity="1"/><stop offset="100%" stop-color="#000000" stop-opacity="1"/></linearGradient><mask id="master_svgh_1258_43359/1200_49878" style="mask-type:alpha" maskUnits="objectBoundingBox"><g><g><rect x="0.0016021728515625" y="0" width="32.31681442260742" height="32.0015983581543" rx="0" fill="url(#master_svgg_3_0362)" fill-opacity="1" style="mix-blend-mode:passthrough"/></g></g></mask><linearGradient x1="0.0021626974921673536" y1="0.5047190189361572" x2="1.0021626949310303" y2="0.5047190189361572" id="master_svgi_3_0358"><stop offset="0%" stop-color="#615CED" stop-opacity="1"/><stop offset="40.00000059604645%" stop-color="#615CED" stop-opacity="1"/><stop offset="100%" stop-color="#615CED" stop-opacity="1"/></linearGradient><mask id="master_svgj_1258_43359/1200_49883" style="mask-type:alpha" maskUnits="objectBoundingBox"><g><g><path d="M13.960694,27.428568L16.160805,23.618782L22.540321,12.57183L27.378962,12.57183C27.378962,12.57183,31.55677,19.80899,31.55677,19.80899L27.156551,19.80899L24.958038,15.9992L16.159203,31.238359L13.959093,27.428568L13.960694,27.428568ZM2.9633472,8.3796206L7.3619676,8.3796206L9.5604773,12.189411L15.938396,23.239563L13.520675,27.431767L5.1634588,27.431767C5.1634588,27.431767,7.3635683,23.618782,7.3635683,23.618782L11.762189,23.618782C11.762189,23.618782,2.9633496,8.3796186,2.9633472,8.3796206ZM7.5811772,7.9988012L11.760585,0.76164085L13.960694,4.5714307L11.760585,8.3812199L29.358263,8.3812199L27.159758,12.189411L10.002098,12.189411L7.5811772,7.9988012ZM11.760585,0.0000024415281C11.624577,0.0000024415281,11.493371,0.036804818,11.379765,0.10240746C11.266158,0.16801132,11.168553,0.26401585,11.099751,0.38082099L7.3603654,6.8579435L6.9203434,7.6179814L2.9617465,7.6179814C2.8257401,7.6179814,2.6945336,7.6547828,2.5809281,7.720386C2.4673228,7.7859912,2.3697178,7.8819938,2.3025146,7.9988012L0.102405,11.808591C0.035201948,11.925397,0,12.058203,0,12.189411C0,12.320619,0.03360153,12.453423,0.102405,12.57023L4.2818136,19.808994L2.3025146,23.237961C2.2353117,23.356369,2.2001097,23.487576,2.2001097,23.618782C2.2001097,23.74999,2.2353117,23.882792,2.3025146,23.999601L4.5026245,27.809389C4.5698271,27.926199,4.6674323,28.022196,4.7810378,28.087805C4.8962431,28.153408,5.0258498,28.190208,5.1618562,28.190208L13.519073,28.190208L15.498372,31.619179C15.634379,31.854393,15.885589,32,16.157602,32L20.556225,32C20.692232,32,20.823435,31.963198,20.937044,31.897593C21.050648,31.831987,21.148254,31.735983,21.215456,31.619179L25.394865,24.380423L29.353464,24.380423C29.489471,24.380423,29.620678,24.343618,29.734283,24.278011C29.847887,24.21241,29.945494,24.116407,30.012693,23.999601L32.212803,20.18981C32.281609,20.073006,32.315212,19.940199,32.315212,19.80899C32.315212,19.677782,32.281612,19.544977,32.212803,19.428171L28.475019,12.952647L28.034994,12.189409L30.014294,8.7620373C30.081501,8.6452322,30.116701,8.5124264,30.116701,8.381218C30.116701,8.2500105,30.083099,8.1172056,30.014294,8.0003977L27.814184,4.1906085C27.746979,4.073802,27.649374,3.9777973,27.535772,3.9121947C27.422167,3.8465908,27.29096,3.8097897,27.154951,3.8097897L18.796133,3.8097897L16.816833,0.38081858C16.680826,0.14560662,16.429615,0,16.157602,0L11.758983,0L11.760585,0.0000024415281Z" fill="#000000" fill-opacity="1" style="mix-blend-mode:passthrough"/></g></g></mask><linearGradient x1="0.8687887787818909" y1="0.49913135170936584" x2="0.1321827918291092" y2="0.49913135170936584" id="master_svgk_340_13832"><stop offset="0%" stop-color="#FFFFFF" stop-opacity="1"/><stop offset="5.999999865889549%" stop-color="#C2C2C2" stop-opacity="1"/><stop offset="12.999999523162842%" stop-color="#878787" stop-opacity="1"/><stop offset="18.99999976158142%" stop-color="#575757" stop-opacity="1"/><stop offset="25.999999046325684%" stop-color="#313131" stop-opacity="1"/><stop offset="31.00000023841858%" stop-color="#161616" stop-opacity="1"/><stop offset="36.000001430511475%" stop-color="#050505" stop-opacity="1"/><stop offset="40.00000059604645%" stop-color="#000000" stop-opacity="1"/><stop offset="100%" stop-color="#000000" stop-opacity="1"/></linearGradient><mask id="master_svgl_1258_43359/1200_49887" style="mask-type:alpha" maskUnits="objectBoundingBox"><g><g transform="matrix(0.5,-0.8660253882408142,0.8660253882408142,0.5,-25.402106236206464,10.231867337739459)"><rect x="-3.839996337890625" y="27.114803314208984" width="43.872589111328125" height="43.987796783447266" rx="0" fill="url(#master_svgk_340_13832)" fill-opacity="1" style="mix-blend-mode:passthrough"/></g></g></mask><linearGradient x1="0.8687887787818909" y1="0.4990586042404175" x2="0.1321827918291092" y2="0.4990586042404175" id="master_svgm_340_13828"><stop offset="0%" stop-color="#A7A5F6" stop-opacity="1"/><stop offset="9.000000357627869%" stop-color="#908DF3" stop-opacity="1"/><stop offset="20.999999344348907%" stop-color="#7672EF" stop-opacity="1"/><stop offset="31.999999284744263%" stop-color="#6661ED" stop-opacity="1"/><stop offset="40.00000059604645%" stop-color="#615CED" stop-opacity="1"/><stop offset="100%" stop-color="#615CED" stop-opacity="1"/></linearGradient></defs><g clip-path="url(#master_svg0_1258_43359)"><g mask="url(#master_svg1_1258_43359/1200_49842)"><g><g mask="url(#master_svg3_1258_43359/1200_49846)"><g><g transform="matrix(0.8660253882408142,-0.5,0.5,0.8660253882408142,-1.4734333500377943,1.8157709520988305)"><rect x="2.6515579223632812" y="3.6573495864868164" width="24.574026107788086" height="20.785036087036133" rx="0" fill="url(#master_svg4_830_30504)" fill-opacity="1" style="mix-blend-mode:passthrough"/></g></g></g></g></g><g mask="url(#master_svg5_1258_43359/1200_49851)"><g><g mask="url(#master_svg7_1258_43359/1200_49855)"><g><g transform="matrix(0.5,-0.8660253882408142,0.8660253882408142,0.5,-22.272977924624797,6.798347993043535)"><rect x="-5.2489471435546875" y="22.688138961791992" width="22.986745834350586" height="20.762632369995117" rx="0" fill="url(#master_svg8_3_0402)" fill-opacity="1" style="mix-blend-mode:passthrough"/></g></g></g></g></g><g mask="url(#master_svg9_1258_43359/1200_49860)"><g><g mask="url(#master_svgb_1258_43359/1200_49864)"><g><g><rect x="13.999908447265625" y="12.600006103515625" width="17.59607696533203" height="18.668132781982422" rx="0" fill="url(#master_svgc_508_26414)" fill-opacity="1" style="mix-blend-mode:passthrough"/></g></g></g></g></g><g mask="url(#master_svgd_1258_43359/1200_49869)"><g><g transform="matrix(0.8660253882408142,-0.5,0.5,0.8660253882408142,-5.856405665009788,-5.85622708734104)"><rect x="-13.856071472167969" y="8.00008773803711" width="43.987796783447266" height="43.872589111328125" rx="0" fill="url(#master_svge_3_0367)" fill-opacity="1" style="mix-blend-mode:passthrough"/></g></g></g><g mask="url(#master_svgf_1258_43359/1200_49874)"><g><g mask="url(#master_svgh_1258_43359/1200_49878)"><g><g><rect x="0.0016021728515625" y="0" width="32.31681442260742" height="32.0015983581543" rx="0" fill="url(#master_svgi_3_0358)" fill-opacity="1" style="mix-blend-mode:passthrough"/></g></g></g></g></g><g mask="url(#master_svgj_1258_43359/1200_49883)"><g><g mask="url(#master_svgl_1258_43359/1200_49887)"><g><g transform="matrix(0.5,-0.8660253882408142,0.8660253882408142,0.5,-25.402106236206464,10.231867337739459)"><rect x="-3.839996337890625" y="27.114803314208984" width="43.872589111328125" height="43.987796783447266" rx="0" fill="url(#master_svgm_340_13828)" fill-opacity="1" style="mix-blend-mode:passthrough"/></g></g></g></g></g></g></svg>