<svg width="16" height="20" viewBox="0 0 16 20" fill="none" xmlns="http://www.w3.org/2000/svg">
<mask id="mask0_13144_27578" style="mask-type:alpha" maskUnits="userSpaceOnUse" x="5" y="9" width="11" height="9">
<path d="M12.09 9.27979C13.4707 9.49544 16.2185 10.765 15.6713 13.4667L15.6265 13.6624C15.3515 14.592 14.9064 15.4641 14.3131 16.2354C13.435 17.312 10.4341 17.3189 8.64417 16.8415C6.70057 16.3233 5.29593 15.1128 5.19531 15.0241C5.9904 15.6346 6.96943 15.9667 7.97715 15.9659C10.5009 15.9659 12.547 13.9293 12.547 11.4163C12.5481 10.6954 12.4209 9.92239 12.09 9.27979Z" fill="black"/>
</mask>
<g mask="url(#mask0_13144_27578)">
<path d="M5.19531 9.27881H15.7423V17.1449H5.19531V9.27881Z" fill="#0336D8"/>
<path d="M15.7423 9.27881V17.1449H5.19531V9.27881H15.7423Z" stroke="#0336D8" stroke-width="0.739338"/>
</g>
<mask id="mask1_13144_27578" style="mask-type:alpha" maskUnits="userSpaceOnUse" x="7" y="0" width="9" height="11">
<path d="M8.04653 0.412476L13.3328 5.53769L13.7249 5.91856C14.9316 7.16987 15.6921 8.77508 15.8908 10.4907C15.2198 9.06465 13.9585 8.66552 12.5416 8.35073C11.4652 8.11247 10.7603 7.76552 10.4489 7.58899L10.3486 7.52639L10.2466 7.46639C8.13153 6.19508 7.98355 4.05508 7.97363 3.82117L8.04653 0.412476Z" fill="black"/>
</mask>
<g mask="url(#mask1_13144_27578)">
<path d="M7.97363 0.403564H15.8917V10.5418H7.97363V0.403564Z" fill="#F50108"/>
<path d="M15.8917 0.403564V10.5418H7.97363V0.403564H15.8917Z" stroke="#F50108" stroke-width="0.739338"/>
</g>
<mask id="mask2_13144_27578" style="mask-type:alpha" maskUnits="userSpaceOnUse" x="0" y="2" width="15" height="18">
<path d="M6.1269 2.18335C6.0698 2.42422 6.00015 2.99553 6.05936 3.71379C6.12857 4.56335 6.40796 5.68509 7.20015 6.93465C7.69761 7.71987 8.39769 8.55639 9.37524 9.4077L9.55392 9.56074L9.73857 9.71466C10.1856 10.172 10.4346 10.7833 10.4331 11.419C10.4331 12.7703 9.33261 13.866 7.97524 13.866C7.41936 13.8668 6.88006 13.6799 6.44699 13.3355C6.53278 13.3634 6.66304 13.3034 6.75331 13.3034C7.13182 13.299 7.46453 13.0555 7.57743 12.699C7.67901 12.3773 7.58182 12.0312 7.3362 11.8077C6.80217 11.392 6.21515 10.8651 5.75436 10.3712C5.17234 9.74161 4.7441 9.12857 4.43296 8.54509C3.65305 9.49987 3.29366 10.7225 3.43532 11.9407C3.57699 13.159 4.20796 14.2694 5.18664 15.0242C5.29313 15.1199 6.69778 16.3286 8.64138 16.8468C10.4325 17.3225 13.4333 17.3147 14.3085 16.2425C12.8516 18.1355 10.5566 19.3564 7.97673 19.3564C3.5734 19.3564 0.00392293 15.8042 0.00392293 11.419C-0.000287598 9.37639 0.792871 7.41031 2.21875 5.92857L2.6205 5.539L6.1269 2.18335Z" fill="black"/>
</mask>
<g mask="url(#mask2_13144_27578)">
<path d="M0.00390625 2.1759H14.3085V19.3542H0.00390625V2.1759Z" fill="#18BDFE"/>
<path d="M14.3085 2.1759V19.3542H0.00390625V2.1759H14.3085Z" stroke="#18BDFE" stroke-width="0.739338"/>
</g>
</svg>
