<?xml version="1.0" encoding="UTF-8" standalone="no"?>
<!-- Copyright 2017 mathsisfun.com -->

<svg
   width="354.92221"
   height="119.50845"
   version="1.1"
   id="svg677"
   sodipodi:docname="fv-formula.svg"
   inkscape:version="1.2.2 (b0a8486541, 2022-12-01)"
   xmlns:inkscape="http://www.inkscape.org/namespaces/inkscape"
   xmlns:sodipodi="http://sodipodi.sourceforge.net/DTD/sodipodi-0.dtd"
   xmlns="http://www.w3.org/2000/svg"
   xmlns:svg="http://www.w3.org/2000/svg">
  <sodipodi:namedview
     id="namedview679"
     pagecolor="#ffffff"
     bordercolor="#000000"
     borderopacity="0.25"
     inkscape:showpageshadow="2"
     inkscape:pageopacity="0.0"
     inkscape:pagecheckerboard="0"
     inkscape:deskcolor="#d1d1d1"
     showgrid="false"
     inkscape:zoom="2.4202486"
     inkscape:cx="177.46111"
     inkscape:cy="59.704611"
     inkscape:window-width="1422"
     inkscape:window-height="719"
     inkscape:window-x="0"
     inkscape:window-y="0"
     inkscape:window-maximized="1"
     inkscape:current-layer="svg677" />
  <defs
     id="defs627" />
  <path
     style="color:#000000;overflow:visible;fill:#ad7fa8;stroke-width:1.42"
     d="m 30.264258,70.828986 c -0.6,-1.9 -0.9,-3.6 -0.8,-5.2 0,-1.2 0.3,-2.2 0.6,-3.2 0.3,-1 0.9,-1.7 1.5,-2.5 0.7,-0.7 1.7,-1.3 2.6,-1.9 1,-0.5 1.8,-1.1 2.6,-1.8 0.8,-0.7 1.8,-1.2 2.6,-1.9 0.8,-0.7 1.5,-1.4 2.3,-2.1 0.8,-0.7 1.4,-1.5 1.9,-2.4 0.5,-0.9 0.9,-1.9 1.2,-3 0.2,-1.1 0.2,-2.3 0.3,-3.5 0.1,-1.1 0,-2.3 -0.1,-3.6 l 1.9,2.2 c 0.1,1.2 0.1,2.4 0,3.6 -0.1,1.2 -0.1,2.4 -0.4,3.5 -0.3,1.1 -0.8,2.1 -1.3,3 -0.6,0.9 -1.2,1.7 -2,2.3 -0.8,0.7 -1.5,1.5 -2.3,2.1 -0.8,0.6 -1.8,1.2 -2.6,1.9 -0.8,0.7 -1.7,1.3 -2.7,1.8 -0.9,0.6 -1.8,1.2 -2.5,1.9 -0.6,0.7 -1.1,1.5 -1.4,2.5 -0.3,1 -0.5,2.1 -0.5,3.3 0,2.2 -0.1,0.5 0.3,2.5 z"
     id="path629" />
  <path
     style="color:#000000;overflow:visible;fill:#c4a000;stroke-width:1.42"
     d="m 142.86426,70.828986 c -0.6,-1.7 -0.9,-3.3 -0.8,-4.7 0,-1.1 0.3,-2 0.6,-2.9 0.3,-0.9 0.8,-1.6 1.5,-2.2 0.7,-0.7 1.6,-1.2 2.5,-1.7 1,-0.4 1.8,-1 2.6,-1.7 0.8,-0.6 1.7,-1.1 2.5,-1.7 0.8,-0.6 1.5,-1.3 2.2,-1.9 0.8,-0.6 1.4,-1.3 1.9,-2.1 0.5,-0.9 0.9,-1.7 1.1,-2.7 0.2,-1 0.2,-2.1 0.3,-3.2 0.1,-1 0,-2.1 -0.1,-3.2 l 1.8,2 c 0.1,1.1 0.1,2.2 0,3.2 -0.1,1.1 -0.1,2.2 -0.4,3.1 -0.3,1 -0.7,1.9 -1.3,2.7 -0.5,0.8 -1.2,1.5 -1.9,2.1 -0.7,0.7 -1.4,1.3 -2.2,1.9 -0.8,0.6 -1.7,1.1 -2.5,1.7 -0.8,0.6 -1.6,1.2 -2.6,1.6 -0.9,0.5 -1.7,1.1 -2.4,1.8 -0.6,0.7 -1.1,1.4 -1.3,2.2 -0.3,0.9 -0.5,1.9 -0.5,3 0,2 -0.1,0.4 0.3,2.2 z"
     id="path631" />
  <text
     x="22.864283"
     y="32.428905"
     style="color:#000000;font-style:normal;font-variant:normal;font-weight:normal;font-stretch:normal;font-size:30.8px;font-family:'Trebuchet MS';-inkscape-font-specification:'Trebuchet MS';overflow:visible;fill:#ad7fa8;stroke-width:0.24px"
     id="text633">PV</text>
  <text
     x="68.664207"
     y="31.629101"
     style="color:#000000;font-style:normal;font-variant:normal;font-weight:normal;font-stretch:normal;font-size:34.5px;font-family:'Trebuchet MS';-inkscape-font-specification:'Trebuchet MS';overflow:visible;fill:#ad7fa8;stroke-width:0.24px"
     id="text635">×</text>
  <text
     x="155.46426"
     y="32.129101"
     style="color:#000000;font-style:normal;font-variant:normal;font-weight:normal;font-stretch:normal;font-size:35px;font-family:'Trebuchet MS';-inkscape-font-specification:'Trebuchet MS';overflow:visible;fill:#c4a000;stroke-width:0.27px"
     id="text637">r</text>
  <text
     x="192.06424"
     y="15.129102"
     style="color:#000000;font-style:normal;font-variant:normal;font-weight:normal;font-stretch:normal;font-size:28.4px;font-family:'Trebuchet MS';-inkscape-font-specification:'Trebuchet MS';overflow:visible;fill:#edd400;stroke-width:0.24px"
     id="text639">n</text>
  <text
     x="95.364281"
     y="30.029003"
     style="color:#000000;font-style:normal;font-variant:normal;font-weight:normal;font-stretch:normal;font-size:30.8px;font-family:'Trebuchet MS';-inkscape-font-specification:'Trebuchet MS';overflow:visible;fill:#8f7700;stroke-width:0.24px"
     id="text641">(</text>
  <text
     x="175.76431"
     y="30.029003"
     style="color:#000000;font-style:normal;font-variant:normal;font-weight:normal;font-stretch:normal;font-size:30.8px;font-family:'Trebuchet MS';-inkscape-font-specification:'Trebuchet MS';overflow:visible;fill:#8f7700;stroke-width:0.24px"
     id="text643">)</text>
  <text
     x="28.664209"
     y="85.629105"
     style="color:#000000;font-style:italic;font-variant:normal;font-weight:normal;font-stretch:normal;font-size:17.1px;font-family:'Trebuchet MS';-inkscape-font-specification:'Trebuchet MS Italic';text-align:center;text-anchor:middle;overflow:visible;fill:#ad7fa8;stroke-width:0.24px"
     id="text645">Present</text>
  <text
     x="130.16422"
     y="83.629105"
     style="color:#000000;font-style:italic;font-variant:normal;font-weight:normal;font-stretch:normal;font-size:17.1px;font-family:'Trebuchet MS';-inkscape-font-specification:'Trebuchet MS Italic';text-align:center;text-anchor:middle;overflow:visible;fill:#c4a000;stroke-width:0.24px"
     id="text647">Interest</text>
  <text
     x="229.46426"
     y="71.329056"
     style="color:#000000;font-style:italic;font-variant:normal;font-weight:normal;font-stretch:normal;font-size:17.1px;font-family:'Trebuchet MS';-inkscape-font-specification:'Trebuchet MS Italic';text-align:center;text-anchor:middle;overflow:visible;fill:#edd400;stroke-width:0.24px"
     id="text649">Number of</text>
  <path
     style="color:#000000;overflow:visible;fill:#edd400;stroke-width:1.49"
     d="m 217.56426,53.528986 c 0.6,-1.9 0.9,-3.6 0.8,-5.1 0,-1.2 -0.3,-2.2 -0.6,-3.2 -0.3,-1 -0.8,-1.7 -1.5,-2.4 -0.7,-0.8 -1.6,-1.4 -2.5,-1.9 -1,-0.5 -1.8,-1.1 -2.6,-1.8 -0.8,-0.6 -1.7,-1.2 -2.5,-1.9 -0.8,-0.7 -1.5,-1.4 -2.2,-2.1 -0.8,-0.7 -1.4,-1.5 -1.9,-2.3 -0.5,-0.9 -0.9,-1.9 -1.1,-3 -0.2,-1.1 -0.2,-2.3 -0.3,-3.5 -0.1,-1.1 0,-2.3 0.1,-3.5 l -1.8,2.2 c -0.1,1.2 -0.1,2.4 0,3.5 0.1,1.2 0.1,2.4 0.4,3.4 0.3,1.1 0.7,2.1 1.2,3 0.5,0.9 1.2,1.6 2,2.3 0.7,0.7 1.4,1.4 2.2,2.1 0.8,0.7 1.7,1.2 2.5,1.9 0.8,0.7 1.6,1.3 2.6,1.8 0.9,0.6 1.7,1.2 2.4,1.9 0.6,0.7 1.1,1.5 1.3,2.5 0.3,1 0.5,2 0.5,3.2 0,2.2 0.1,0.5 -0.3,2.4 z"
     id="path651" />
  <text
     x="109.96426"
     y="32.928905"
     style="color:#000000;font-style:normal;font-variant:normal;font-weight:normal;font-stretch:normal;font-size:30.8px;font-family:'Trebuchet MS';-inkscape-font-specification:'Trebuchet MS';overflow:visible;fill:#8f7700;stroke-width:0.24px"
     id="text653">1</text>
  <path
     style="color:#000000;overflow:visible;fill:#3071d8;stroke-width:1.42"
     d="m 330.26426,70.128986 c 0.6,-1.9 0.9,-3.6 0.8,-5.2 0,-1.2 -0.3,-2.3 -0.6,-3.2 -0.3,-1 -0.9,-1.7 -1.5,-2.4 -0.7,-0.8 -1.7,-1.4 -2.6,-1.9 -1,-0.5 -1.9,-1.1 -2.6,-1.8 -0.8,-0.7 -1.8,-1.2 -2.6,-1.9 -0.8,-0.7 -1.5,-1.4 -2.3,-2.1 -0.8,-0.7 -1.4,-1.5 -1.9,-2.4 -0.5,-0.9 -0.9,-1.9 -1.2,-3 -0.2,-1.1 -0.2,-2.3 -0.3,-3.5 -0.1,-1.1 0,-2.3 0.1,-3.6 l -1.9,2.2 c -0.1,1.2 -0.1,2.4 0,3.6 0.1,1.2 0.1,2.4 0.4,3.5 0.3,1.1 0.8,2.1 1.3,3 0.6,0.9 1.2,1.7 2,2.3 0.8,0.7 1.5,1.4 2.3,2.1 0.8,0.7 1.8,1.2 2.6,1.9 0.8,0.7 1.7,1.3 2.7,1.8 0.9,0.6 1.8,1.2 2.5,1.9 0.6,0.8 1.1,1.5 1.4,2.5 0.3,1 0.5,2.1 0.5,3.3 0,2.2 0.1,0.5 -0.3,2.5 z"
     id="path655" />
  <text
     x="295.56424"
     y="32.228954"
     style="color:#000000;font-style:normal;font-variant:normal;font-weight:normal;font-stretch:normal;font-size:30.8px;font-family:'Trebuchet MS';-inkscape-font-specification:'Trebuchet MS';overflow:visible;fill:#3071d8;stroke-width:0.24px"
     id="text657">FV</text>
  <text
     x="329.46426"
     y="85.829056"
     style="color:#000000;font-style:italic;font-variant:normal;font-weight:normal;font-stretch:normal;font-size:17.1px;font-family:'Trebuchet MS';-inkscape-font-specification:'Trebuchet MS Italic';text-align:center;text-anchor:middle;overflow:visible;fill:#3071d8;stroke-width:0.24px"
     id="text659">Future</text>
  <text
     x="243.26431"
     y="30.129101"
     style="color:#000000;font-style:normal;font-variant:normal;font-weight:normal;font-stretch:normal;font-size:30.8px;font-family:'Trebuchet MS';-inkscape-font-specification:'Trebuchet MS';overflow:visible;fill:#283cae;stroke-width:0.24px"
     id="text661">=</text>
  <text
     x="124.46426"
     y="116.72896"
     style="color:#000000;font-style:italic;font-variant:normal;font-weight:normal;font-stretch:normal;font-size:13.3px;font-family:'Trebuchet MS';-inkscape-font-specification:'Trebuchet MS Italic';text-align:center;text-anchor:middle;overflow:visible;fill:#c4a000;stroke-width:0.24px"
     id="text663">(as a decimal)</text>
  <text
     x="27.064234"
     y="103.52901"
     style="color:#000000;font-style:italic;font-variant:normal;font-weight:normal;font-stretch:normal;font-size:17.1px;font-family:'Trebuchet MS';-inkscape-font-specification:'Trebuchet MS Italic';text-align:center;text-anchor:middle;overflow:visible;fill:#ad7fa8;stroke-width:0.24px"
     id="text667">Value</text>
  <text
     x="127.86428"
     y="101.22896"
     style="color:#000000;font-style:italic;font-variant:normal;font-weight:normal;font-stretch:normal;font-size:17.1px;font-family:'Trebuchet MS';-inkscape-font-specification:'Trebuchet MS Italic';text-align:center;text-anchor:middle;overflow:visible;fill:#c4a000;stroke-width:0.24px"
     id="text669">Rate</text>
  <text
     x="228.76431"
     y="88.629105"
     style="color:#000000;font-style:italic;font-variant:normal;font-weight:normal;font-stretch:normal;font-size:17.1px;font-family:'Trebuchet MS';-inkscape-font-specification:'Trebuchet MS Italic';text-align:center;text-anchor:middle;overflow:visible;fill:#edd400;stroke-width:0.24px"
     id="text671">Periods</text>
  <text
     x="329.46426"
     y="104.22896"
     style="color:#000000;font-style:italic;font-variant:normal;font-weight:normal;font-stretch:normal;font-size:17.1px;font-family:'Trebuchet MS';-inkscape-font-specification:'Trebuchet MS Italic';text-align:center;text-anchor:middle;overflow:visible;fill:#3071d8;stroke-width:0.24px"
     id="text673">Value</text>
  <text
     x="130.38614"
     y="32.361584"
     style="color:#000000;font-style:normal;font-variant:normal;font-weight:normal;font-stretch:normal;font-size:30.8px;font-family:'Trebuchet MS';-inkscape-font-specification:'Trebuchet MS';overflow:visible;fill:#8f7700;stroke-width:0.24px"
     id="text821">+</text>
</svg>
