<svg xmlns="http://www.w3.org/2000/svg" xmlns:svg="http://www.w3.org/2000/svg" id="svg677" width="354.922" height="119.508" version="1.1"><path style="color:#000;overflow:visible;fill:#ad7fa8;stroke-width:1.42" id="path629" d="m 30.264258,70.828986 c -0.6,-1.9 -0.9,-3.6 -0.8,-5.2 0,-1.2 0.3,-2.2 0.6,-3.2 0.3,-1 0.9,-1.7 1.5,-2.5 0.7,-0.7 1.7,-1.3 2.6,-1.9 1,-0.5 1.8,-1.1 2.6,-1.8 0.8,-0.7 1.8,-1.2 2.6,-1.9 0.8,-0.7 1.5,-1.4 2.3,-2.1 0.8,-0.7 1.4,-1.5 1.9,-2.4 0.5,-0.9 0.9,-1.9 1.2,-3 0.2,-1.1 0.2,-2.3 0.3,-3.5 0.1,-1.1 0,-2.3 -0.1,-3.6 l 1.9,2.2 c 0.1,1.2 0.1,2.4 0,3.6 -0.1,1.2 -0.1,2.4 -0.4,3.5 -0.3,1.1 -0.8,2.1 -1.3,3 -0.6,0.9 -1.2,1.7 -2,2.3 -0.8,0.7 -1.5,1.5 -2.3,2.1 -0.8,0.6 -1.8,1.2 -2.6,1.9 -0.8,0.7 -1.7,1.3 -2.7,1.8 -0.9,0.6 -1.8,1.2 -2.5,1.9 -0.6,0.7 -1.1,1.5 -1.4,2.5 -0.3,1 -0.5,2.1 -0.5,3.3 0,2.2 -0.1,0.5 0.3,2.5 z"/><path style="color:#000;overflow:visible;fill:#c4a000;stroke-width:1.42" id="path631" d="m 142.86426,70.828986 c -0.6,-1.7 -0.9,-3.3 -0.8,-4.7 0,-1.1 0.3,-2 0.6,-2.9 0.3,-0.9 0.8,-1.6 1.5,-2.2 0.7,-0.7 1.6,-1.2 2.5,-1.7 1,-0.4 1.8,-1 2.6,-1.7 0.8,-0.6 1.7,-1.1 2.5,-1.7 0.8,-0.6 1.5,-1.3 2.2,-1.9 0.8,-0.6 1.4,-1.3 1.9,-2.1 0.5,-0.9 0.9,-1.7 1.1,-2.7 0.2,-1 0.2,-2.1 0.3,-3.2 0.1,-1 0,-2.1 -0.1,-3.2 l 1.8,2 c 0.1,1.1 0.1,2.2 0,3.2 -0.1,1.1 -0.1,2.2 -0.4,3.1 -0.3,1 -0.7,1.9 -1.3,2.7 -0.5,0.8 -1.2,1.5 -1.9,2.1 -0.7,0.7 -1.4,1.3 -2.2,1.9 -0.8,0.6 -1.7,1.1 -2.5,1.7 -0.8,0.6 -1.6,1.2 -2.6,1.6 -0.9,0.5 -1.7,1.1 -2.4,1.8 -0.6,0.7 -1.1,1.4 -1.3,2.2 -0.3,0.9 -0.5,1.9 -0.5,3 0,2 -0.1,0.4 0.3,2.2 z"/><text style="color:#000;font-style:normal;font-variant:normal;font-weight:400;font-stretch:normal;font-size:30.8px;font-family:'Trebuchet MS';-inkscape-font-specification:'Trebuchet MS';overflow:visible;fill:#ad7fa8;stroke-width:.24px" id="text633" x="22.864" y="32.429">PV</text><text style="color:#000;font-style:normal;font-variant:normal;font-weight:400;font-stretch:normal;font-size:34.5px;font-family:'Trebuchet MS';-inkscape-font-specification:'Trebuchet MS';overflow:visible;fill:#ad7fa8;stroke-width:.24px" id="text635" x="68.664" y="31.629">×</text><text style="color:#000;font-style:normal;font-variant:normal;font-weight:400;font-stretch:normal;font-size:35px;font-family:'Trebuchet MS';-inkscape-font-specification:'Trebuchet MS';overflow:visible;fill:#c4a000;stroke-width:.27px" id="text637" x="155.464" y="32.129">r</text><text style="color:#000;font-style:normal;font-variant:normal;font-weight:400;font-stretch:normal;font-size:28.4px;font-family:'Trebuchet MS';-inkscape-font-specification:'Trebuchet MS';overflow:visible;fill:#edd400;stroke-width:.24px" id="text639" x="192.064" y="15.129">n</text><text style="color:#000;font-style:normal;font-variant:normal;font-weight:400;font-stretch:normal;font-size:30.8px;font-family:'Trebuchet MS';-inkscape-font-specification:'Trebuchet MS';overflow:visible;fill:#8f7700;stroke-width:.24px" id="text641" x="95.364" y="30.029">(</text><text style="color:#000;font-style:normal;font-variant:normal;font-weight:400;font-stretch:normal;font-size:30.8px;font-family:'Trebuchet MS';-inkscape-font-specification:'Trebuchet MS';overflow:visible;fill:#8f7700;stroke-width:.24px" id="text643" x="175.764" y="30.029">)</text><text style="color:#000;font-style:italic;font-variant:normal;font-weight:400;font-stretch:normal;font-size:17.1px;font-family:'Trebuchet MS';-inkscape-font-specification:'Trebuchet MS Italic';text-align:center;text-anchor:middle;overflow:visible;fill:#ad7fa8;stroke-width:.24px" id="text645" x="28.664" y="85.629">Present</text><text style="color:#000;font-style:italic;font-variant:normal;font-weight:400;font-stretch:normal;font-size:17.1px;font-family:'Trebuchet MS';-inkscape-font-specification:'Trebuchet MS Italic';text-align:center;text-anchor:middle;overflow:visible;fill:#c4a000;stroke-width:.24px" id="text647" x="130.164" y="83.629">Interest</text><text style="color:#000;font-style:italic;font-variant:normal;font-weight:400;font-stretch:normal;font-size:17.1px;font-family:'Trebuchet MS';-inkscape-font-specification:'Trebuchet MS Italic';text-align:center;text-anchor:middle;overflow:visible;fill:#edd400;stroke-width:.24px" id="text649" x="229.464" y="71.329">Number of</text><path style="color:#000;overflow:visible;fill:#edd400;stroke-width:1.49" id="path651" d="m 217.56426,53.528986 c 0.6,-1.9 0.9,-3.6 0.8,-5.1 0,-1.2 -0.3,-2.2 -0.6,-3.2 -0.3,-1 -0.8,-1.7 -1.5,-2.4 -0.7,-0.8 -1.6,-1.4 -2.5,-1.9 -1,-0.5 -1.8,-1.1 -2.6,-1.8 -0.8,-0.6 -1.7,-1.2 -2.5,-1.9 -0.8,-0.7 -1.5,-1.4 -2.2,-2.1 -0.8,-0.7 -1.4,-1.5 -1.9,-2.3 -0.5,-0.9 -0.9,-1.9 -1.1,-3 -0.2,-1.1 -0.2,-2.3 -0.3,-3.5 -0.1,-1.1 0,-2.3 0.1,-3.5 l -1.8,2.2 c -0.1,1.2 -0.1,2.4 0,3.5 0.1,1.2 0.1,2.4 0.4,3.4 0.3,1.1 0.7,2.1 1.2,3 0.5,0.9 1.2,1.6 2,2.3 0.7,0.7 1.4,1.4 2.2,2.1 0.8,0.7 1.7,1.2 2.5,1.9 0.8,0.7 1.6,1.3 2.6,1.8 0.9,0.6 1.7,1.2 2.4,1.9 0.6,0.7 1.1,1.5 1.3,2.5 0.3,1 0.5,2 0.5,3.2 0,2.2 0.1,0.5 -0.3,2.4 z"/><text style="color:#000;font-style:normal;font-variant:normal;font-weight:400;font-stretch:normal;font-size:30.8px;font-family:'Trebuchet MS';-inkscape-font-specification:'Trebuchet MS';overflow:visible;fill:#8f7700;stroke-width:.24px" id="text653" x="109.964" y="32.929">1</text><path style="color:#000;overflow:visible;fill:#3071d8;stroke-width:1.42" id="path655" d="m 330.26426,70.128986 c 0.6,-1.9 0.9,-3.6 0.8,-5.2 0,-1.2 -0.3,-2.3 -0.6,-3.2 -0.3,-1 -0.9,-1.7 -1.5,-2.4 -0.7,-0.8 -1.7,-1.4 -2.6,-1.9 -1,-0.5 -1.9,-1.1 -2.6,-1.8 -0.8,-0.7 -1.8,-1.2 -2.6,-1.9 -0.8,-0.7 -1.5,-1.4 -2.3,-2.1 -0.8,-0.7 -1.4,-1.5 -1.9,-2.4 -0.5,-0.9 -0.9,-1.9 -1.2,-3 -0.2,-1.1 -0.2,-2.3 -0.3,-3.5 -0.1,-1.1 0,-2.3 0.1,-3.6 l -1.9,2.2 c -0.1,1.2 -0.1,2.4 0,3.6 0.1,1.2 0.1,2.4 0.4,3.5 0.3,1.1 0.8,2.1 1.3,3 0.6,0.9 1.2,1.7 2,2.3 0.8,0.7 1.5,1.4 2.3,2.1 0.8,0.7 1.8,1.2 2.6,1.9 0.8,0.7 1.7,1.3 2.7,1.8 0.9,0.6 1.8,1.2 2.5,1.9 0.6,0.8 1.1,1.5 1.4,2.5 0.3,1 0.5,2.1 0.5,3.3 0,2.2 0.1,0.5 -0.3,2.5 z"/><text style="color:#000;font-style:normal;font-variant:normal;font-weight:400;font-stretch:normal;font-size:30.8px;font-family:'Trebuchet MS';-inkscape-font-specification:'Trebuchet MS';overflow:visible;fill:#3071d8;stroke-width:.24px" id="text657" x="295.564" y="32.229">FV</text><text style="color:#000;font-style:italic;font-variant:normal;font-weight:400;font-stretch:normal;font-size:17.1px;font-family:'Trebuchet MS';-inkscape-font-specification:'Trebuchet MS Italic';text-align:center;text-anchor:middle;overflow:visible;fill:#3071d8;stroke-width:.24px" id="text659" x="329.464" y="85.829">Future</text><text style="color:#000;font-style:normal;font-variant:normal;font-weight:400;font-stretch:normal;font-size:30.8px;font-family:'Trebuchet MS';-inkscape-font-specification:'Trebuchet MS';overflow:visible;fill:#283cae;stroke-width:.24px" id="text661" x="243.264" y="30.129">=</text><text style="color:#000;font-style:italic;font-variant:normal;font-weight:400;font-stretch:normal;font-size:13.3px;font-family:'Trebuchet MS';-inkscape-font-specification:'Trebuchet MS Italic';text-align:center;text-anchor:middle;overflow:visible;fill:#c4a000;stroke-width:.24px" id="text663" x="124.464" y="116.729">(as a decimal)</text><text style="color:#000;font-style:italic;font-variant:normal;font-weight:400;font-stretch:normal;font-size:17.1px;font-family:'Trebuchet MS';-inkscape-font-specification:'Trebuchet MS Italic';text-align:center;text-anchor:middle;overflow:visible;fill:#ad7fa8;stroke-width:.24px" id="text667" x="27.064" y="103.529">Value</text><text style="color:#000;font-style:italic;font-variant:normal;font-weight:400;font-stretch:normal;font-size:17.1px;font-family:'Trebuchet MS';-inkscape-font-specification:'Trebuchet MS Italic';text-align:center;text-anchor:middle;overflow:visible;fill:#c4a000;stroke-width:.24px" id="text669" x="127.864" y="101.229">Rate</text><text style="color:#000;font-style:italic;font-variant:normal;font-weight:400;font-stretch:normal;font-size:17.1px;font-family:'Trebuchet MS';-inkscape-font-specification:'Trebuchet MS Italic';text-align:center;text-anchor:middle;overflow:visible;fill:#edd400;stroke-width:.24px" id="text671" x="228.764" y="88.629">Periods</text><text style="color:#000;font-style:italic;font-variant:normal;font-weight:400;font-stretch:normal;font-size:17.1px;font-family:'Trebuchet MS';-inkscape-font-specification:'Trebuchet MS Italic';text-align:center;text-anchor:middle;overflow:visible;fill:#3071d8;stroke-width:.24px" id="text673" x="329.464" y="104.229">Value</text><text style="color:#000;font-style:normal;font-variant:normal;font-weight:400;font-stretch:normal;font-size:30.8px;font-family:'Trebuchet MS';-inkscape-font-specification:'Trebuchet MS';overflow:visible;fill:#8f7700;stroke-width:.24px" id="text821" x="130.386" y="32.362">+</text></svg>