<?xml version="1.0" encoding="UTF-8" standalone="no"?>
<svg
   xmlns:dc="http://purl.org/dc/elements/1.1/"
   xmlns:cc="http://creativecommons.org/ns#"
   xmlns:rdf="http://www.w3.org/1999/02/22-rdf-syntax-ns#"
   xmlns:svg="http://www.w3.org/2000/svg"
   xmlns="http://www.w3.org/2000/svg"
   xmlns:sodipodi="http://sodipodi.sourceforge.net/DTD/sodipodi-0.dtd"
   xmlns:inkscape="http://www.inkscape.org/namespaces/inkscape"
   width="221.653"
   height="121.715"
   version="1.1"
   id="svg30"
   sodipodi:docname="integral-vs-derivative.svg"
   inkscape:version="1.0.1 (3bc2e813f5, 2020-09-07)">
  <metadata
     id="metadata34">
    <rdf:RDF>
      <cc:Work
         rdf:about="">
        <dc:format>image/svg+xml</dc:format>
        <dc:type
           rdf:resource="http://purl.org/dc/dcmitype/StillImage" />
      </cc:Work>
    </rdf:RDF>
  </metadata>
  <sodipodi:namedview
     pagecolor="#ffffff"
     bordercolor="#666666"
     borderopacity="1"
     objecttolerance="10"
     gridtolerance="10"
     guidetolerance="10"
     inkscape:pageopacity="0"
     inkscape:pageshadow="2"
     inkscape:window-width="640"
     inkscape:window-height="480"
     id="namedview32"
     showgrid="false"
     inkscape:current-layer="svg30"
     inkscape:document-rotation="0" />
  <defs
     id="defs2" />
  <text
     x="155.61"
     y="74.4594"
     style="font-size:30.9px;font-family:'Trebuchet MS';overflow:visible;fill:#3465a4;stroke-width:0.5px"
     id="text4">x  </text>
  <text
     x="-0.890186"
     y="74.4594"
     style="font-size:30.9px;font-family:'Trebuchet MS';overflow:visible;fill:#3465a4;stroke-width:0.5px"
     id="text6">2x</text>
  <g
     transform="matrix(0.428577,0.012968,-0.012968,0.428577,-116.428,-140.966)"
     id="g14">
    <path
       style="overflow:visible;fill:#729fcf;stroke-width:2.5"
       d="m 338.6,407.1 c 17.5,-12.4 39,-16.5 58.9,-23.5 39.6,-12.2 81.3,-16.9 122.6,-16.3 32,0.9 64.8,5.4 93.5,20.6 5.2,1.9 23.3,8.6 11.2,12.6 -9.8,-5 -22.1,-10.9 -33.3,-15.4 -40.1,-14.2 -83.7,-14.3 -125.6,-10.1 -28.1,2.7 -55.9,8.5 -82.4,18.1 -12.8,4.6 -26.6,7.7 -37.6,16.1 -2.4,-0.7 -4.8,-1.4 -7.2,-2 z"
       id="path8" />
    <path
       style="overflow:visible;fill:#729fcf;stroke-width:2.5"
       d="m 585.6,393.6 c 12.4,-5 26.3,-0.7 39,1.6 7.5,1.4 11.2,5.1 3,8.5 -10,-5.6 -22,-6 -33.2,-7 -7.3,0.5 -2.2,0.8 -3.2,-0.9 -1.9,-0.7 -3.8,-1.5 -5.6,-2.2 z"
       id="path10" />
    <path
       style="overflow:visible;fill:#729fcf;stroke-width:2.5"
       d="m 619.1,373.9 c -0.2,10.7 13.4,21.6 14.5,26.8 -8.3,7.8 -15.5,-9 -18.5,-15.2 -3.4,-6.8 -4.8,-11.1 4,-11.6 z"
       id="path12" />
  </g>
  <g
     transform="matrix(-0.428577,-0.012968,0.012968,-0.428577,289.142,266.964)"
     id="g22">
    <path
       style="overflow:visible;fill:#edd400;stroke-width:2.5"
       d="m 338.6,407.1 c 17.5,-12.4 39,-16.5 58.9,-23.5 39.6,-12.2 81.3,-16.9 122.6,-16.3 32,0.9 64.8,5.4 93.5,20.6 5.2,1.9 23.3,8.6 11.2,12.6 -9.8,-5 -22.1,-10.9 -33.3,-15.4 -40.1,-14.2 -83.7,-14.3 -125.6,-10.1 -28.1,2.7 -55.9,8.5 -82.4,18.1 -12.8,4.6 -26.6,7.7 -37.6,16.1 -2.4,-0.7 -4.8,-1.4 -7.2,-2 z"
       id="path16" />
    <path
       style="overflow:visible;fill:#edd400;stroke-width:2.5"
       d="m 585.6,393.6 c 12.4,-5 26.3,-0.7 39,1.6 7.5,1.4 11.2,5.1 3,8.5 -10,-5.6 -22,-6 -33.2,-7 -7.3,0.5 -2.2,0.8 -3.2,-0.9 -1.9,-0.7 -3.8,-1.5 -5.6,-2.2 z"
       id="path18" />
    <path
       style="overflow:visible;fill:#edd400;stroke-width:2.5"
       d="m 619.1,373.9 c -0.2,10.7 13.4,21.6 14.5,26.8 -8.3,7.8 -15.5,-9 -18.5,-15.2 -3.4,-6.8 -4.8,-11.1 4,-11.6 z"
       id="path20" />
  </g>
  <text
     x="53.6934"
     y="15.7046"
     style="font-style:italic;font-size:21.3px;font-family:'Trebuchet MS';overflow:visible;fill:#729fcf;stroke-width:1.25"
     id="text24">Integral</text>
  <text
     x="40.5356"
     y="121.507"
     style="font-style:italic;font-size:21.3px;font-family:'Trebuchet MS';overflow:visible;fill:#edd400;stroke-width:1.25"
     id="text26">Derivative</text>
  <text
     x="171.932"
     y="61.9136"
     style="font-size:20.6px;font-family:'Trebuchet MS';overflow:visible;fill:#3465a4;stroke-width:0.5px"
     id="text28">2</text>
  <text
     x="188.299"
     y="74.4594"
     style="font-size:30.9px;font-family:'Trebuchet MS';overflow:visible;fill:#3465a4;stroke-width:0.5px"
     id="text879">+</text>
  <text
     x="208.235"
     y="74.4594"
     style="font-size:24px;font-family:'Trebuchet MS';overflow:visible;fill:#3465a4;stroke-width:0.5px"
     id="text881">C</text>
</svg>
