<svg xmlns="http://www.w3.org/2000/svg" xmlns:svg="http://www.w3.org/2000/svg" id="svg30" width="221.653" height="121.715" version="1.1"><metadata id="metadata34"/><text style="font-size:30.9px;font-family:'Trebuchet MS';overflow:visible;fill:#3465a4;stroke-width:.5px" id="text4" x="155.61" y="74.459">x</text><text style="font-size:30.9px;font-family:'Trebuchet MS';overflow:visible;fill:#3465a4;stroke-width:.5px" id="text6" x="-.89" y="74.459">2x</text><g id="g14" transform="matrix(0.428577,0.012968,-0.012968,0.428577,-116.428,-140.966)"><path style="overflow:visible;fill:#729fcf;stroke-width:2.5" id="path8" d="m 338.6,407.1 c 17.5,-12.4 39,-16.5 58.9,-23.5 39.6,-12.2 81.3,-16.9 122.6,-16.3 32,0.9 64.8,5.4 93.5,20.6 5.2,1.9 23.3,8.6 11.2,12.6 -9.8,-5 -22.1,-10.9 -33.3,-15.4 -40.1,-14.2 -83.7,-14.3 -125.6,-10.1 -28.1,2.7 -55.9,8.5 -82.4,18.1 -12.8,4.6 -26.6,7.7 -37.6,16.1 -2.4,-0.7 -4.8,-1.4 -7.2,-2 z"/><path style="overflow:visible;fill:#729fcf;stroke-width:2.5" id="path10" d="m 585.6,393.6 c 12.4,-5 26.3,-0.7 39,1.6 7.5,1.4 11.2,5.1 3,8.5 -10,-5.6 -22,-6 -33.2,-7 -7.3,0.5 -2.2,0.8 -3.2,-0.9 -1.9,-0.7 -3.8,-1.5 -5.6,-2.2 z"/><path style="overflow:visible;fill:#729fcf;stroke-width:2.5" id="path12" d="m 619.1,373.9 c -0.2,10.7 13.4,21.6 14.5,26.8 -8.3,7.8 -15.5,-9 -18.5,-15.2 -3.4,-6.8 -4.8,-11.1 4,-11.6 z"/></g><g id="g22" transform="matrix(-0.428577,-0.012968,0.012968,-0.428577,289.142,266.964)"><path style="overflow:visible;fill:#edd400;stroke-width:2.5" id="path16" d="m 338.6,407.1 c 17.5,-12.4 39,-16.5 58.9,-23.5 39.6,-12.2 81.3,-16.9 122.6,-16.3 32,0.9 64.8,5.4 93.5,20.6 5.2,1.9 23.3,8.6 11.2,12.6 -9.8,-5 -22.1,-10.9 -33.3,-15.4 -40.1,-14.2 -83.7,-14.3 -125.6,-10.1 -28.1,2.7 -55.9,8.5 -82.4,18.1 -12.8,4.6 -26.6,7.7 -37.6,16.1 -2.4,-0.7 -4.8,-1.4 -7.2,-2 z"/><path style="overflow:visible;fill:#edd400;stroke-width:2.5" id="path18" d="m 585.6,393.6 c 12.4,-5 26.3,-0.7 39,1.6 7.5,1.4 11.2,5.1 3,8.5 -10,-5.6 -22,-6 -33.2,-7 -7.3,0.5 -2.2,0.8 -3.2,-0.9 -1.9,-0.7 -3.8,-1.5 -5.6,-2.2 z"/><path style="overflow:visible;fill:#edd400;stroke-width:2.5" id="path20" d="m 619.1,373.9 c -0.2,10.7 13.4,21.6 14.5,26.8 -8.3,7.8 -15.5,-9 -18.5,-15.2 -3.4,-6.8 -4.8,-11.1 4,-11.6 z"/></g><text style="font-style:italic;font-size:21.3px;font-family:'Trebuchet MS';overflow:visible;fill:#729fcf;stroke-width:1.25" id="text24" x="53.693" y="15.705">Integral</text><text style="font-style:italic;font-size:21.3px;font-family:'Trebuchet MS';overflow:visible;fill:#edd400;stroke-width:1.25" id="text26" x="40.536" y="121.507">Derivative</text><text style="font-size:20.6px;font-family:'Trebuchet MS';overflow:visible;fill:#3465a4;stroke-width:.5px" id="text28" x="171.932" y="61.914">2</text><text style="font-size:30.9px;font-family:'Trebuchet MS';overflow:visible;fill:#3465a4;stroke-width:.5px" id="text879" x="188.299" y="74.459">+</text><text style="font-size:24px;font-family:'Trebuchet MS';overflow:visible;fill:#3465a4;stroke-width:.5px" id="text881" x="208.235" y="74.459">C</text></svg>