<?xml version="1.0" standalone="no"?><!DOCTYPE svg PUBLIC "-//W3C//DTD SVG 1.1//EN" "http://www.w3.org/Graphics/SVG/1.1/DTD/svg11.dtd"><svg t="1740674037812" class="icon" viewBox="0 0 1024 1024" version="1.1" xmlns="http://www.w3.org/2000/svg" p-id="3732" xmlns:xlink="http://www.w3.org/1999/xlink" width="200" height="200"><path d="M992 454.4c-6.4-19.2-6.4-38.4-12.8-64-25.6-89.6-70.4-172.8-140.8-236.8-25.6-25.6-51.2-44.8-83.2-64-83.2-51.2-172.8-70.4-268.8-64-6.4 0-19.2-6.4-25.6 6.4C371.2 38.4 288 70.4 224 128c-12.8 6.4-25.6 19.2-32 25.6-51.2 44.8-89.6 96-115.2 153.6-6.4 6.4-6.4 19.2-12.8 32-12.8 38.4-25.6 76.8-32 115.2v19.2c-6.4 57.6 6.4 115.2 19.2 172.8 12.8 44.8 32 89.6 57.6 134.4 38.4 51.2 83.2 96 134.4 134.4 57.6 44.8 128 70.4 204.8 76.8 6.4 0 12.8 0 12.8 6.4h96c6.4-6.4 12.8-6.4 19.2-6.4 57.6-6.4 108.8-25.6 160-51.2 6.4 0 6.4-6.4 12.8-6.4 32-19.2 64-38.4 89.6-64 6.4-6.4 12.8-12.8 25.6-19.2 64-70.4 108.8-153.6 128-243.2v-19.2c0-6.4 0-19.2 6.4-19.2L992 454.4zM185.6 217.6c25.6-32 57.6-57.6 89.6-76.8 0 0 6.4 0 6.4-6.4 153.6-96 358.4-89.6 512 32 57.6 44.8 96 102.4 128 166.4 6.4 25.6 12.8 44.8 25.6 70.4 0 19.2 6.4 38.4 6.4 57.6 0 6.4 0 12.8-6.4 12.8-76.8 32-140.8 83.2-204.8 140.8-32 32-64 51.2-102.4 70.4h-6.4 6.4-12.8c-32 6.4-64 0-83.2-25.6-6.4-6.4-12.8-12.8 0-25.6s19.2-19.2 25.6-32c6.4 0 6.4 0 6.4-6.4 6.4-12.8 12.8-25.6 12.8-38.4 0-19.2-6.4-32-25.6-25.6h-12.8c-25.6 12.8-64 25.6-96 32-6.4 0-19.2 0-25.6 6.4h-89.6c-57.6-6.4-115.2-12.8-160-44.8-32-19.2-57.6-44.8-89.6-64-6.4-6.4-12.8-6.4-12.8-12.8v-12.8C96 352 128 281.6 185.6 217.6zM70.4 556.8v-51.2c12.8 6.4 25.6 12.8 38.4 25.6 115.2 70.4 243.2 96 377.6 57.6h6.4c-6.4 0-6.4 0-12.8 6.4-89.6 32-179.2 38.4-275.2 25.6h-6.4l-6.4-6.4-44.8-12.8c-6.4 0-6.4 0-12.8-6.4-19.2-6.4-38.4-12.8-51.2-25.6-6.4 0-12.8-6.4-12.8-12.8z m38.4 140.8l-19.2-44.8c12.8 0 19.2 6.4 32 0h12.8c12.8 0 25.6 6.4 32 6.4H192c102.4 6.4 198.4-12.8 288-57.6h12.8c12.8 0 19.2-6.4 25.6-12.8 6.4-6.4 12.8-6.4 19.2-6.4h6.4c0 6.4-6.4 12.8-12.8 19.2l-12.8 6.4c-51.2 32-102.4 57.6-153.6 70.4-6.4 0-12.8 6.4-19.2 6.4h-12.8C256 704 185.6 710.4 121.6 704c-6.4-6.4-6.4-6.4-12.8-6.4z m64 102.4c-6.4-6.4-12.8-12.8-19.2-25.6h19.2c19.2 0 38.4 0 57.6-6.4 44.8-6.4 89.6-19.2 134.4-38.4 6.4 0 6.4-6.4 12.8-6.4 12.8-6.4 32-12.8 44.8-19.2l6.4-6.4c6.4 0 12.8-6.4 19.2-6.4 19.2-6.4 25.6-25.6 44.8-25.6-12.8 19.2-32 25.6-44.8 44.8-19.2 19.2-38.4 32-64 44.8-6.4 0-6.4 6.4-12.8 6.4-57.6 25.6-115.2 51.2-179.2 57.6L172.8 800z m486.4 140.8c-12.8 0-19.2 6.4-32 6.4-44.8 12.8-83.2 19.2-128 12.8-32 0-64-6.4-102.4-12.8-6.4 0-19.2-6.4-25.6-6.4-44.8-19.2-89.6-38.4-128-64-6.4 0-12.8-6.4-6.4-12.8 6.4 0 6.4 0 12.8-6.4 89.6-32 166.4-89.6 230.4-160l6.4-6.4c0 19.2 0 38.4 6.4 57.6v6.4C505.6 761.6 512 768 512 768v6.4c19.2 32 51.2 44.8 89.6 57.6 12.8 6.4 25.6 12.8 38.4 12.8h6.4c32 6.4 57.6 12.8 89.6 19.2h32c-25.6 38.4-64 57.6-108.8 76.8z m185.6-115.2z m-38.4 0h-96c-25.6 0-51.2-6.4-70.4-12.8-44.8-12.8-76.8-32-108.8-70.4V736H544c19.2 12.8 44.8 32 70.4 38.4 25.6 12.8 51.2 19.2 76.8 19.2h19.2c19.2 6.4 44.8 6.4 64 0h19.2c32 0 57.6-6.4 89.6-12.8h6.4c-32 25.6-51.2 44.8-83.2 44.8zM928 691.2c-6.4 12.8-19.2 19.2-38.4 25.6l-134.4 38.4h-6.4c-19.2 0-38.4 6.4-57.6 6.4h-89.6c-6.4 0-6.4 0-12.8-6.4-12.8-6.4-25.6-12.8-32-19.2v-6.4c12.8 0 25.6 6.4 38.4 12.8 38.4 6.4 76.8 6.4 115.2-6.4 57.6-12.8 115.2-32 172.8-51.2 12.8-6.4 19.2-6.4 32-6.4h19.2v6.4c-6.4 0-6.4 6.4-6.4 6.4zM640 736c6.4 0 6.4 0 0 0 6.4 0 6.4 0 0 0 6.4 0 6.4 0 0 0z m307.2-134.4c-38.4 0-70.4 12.8-102.4 32l-96 57.6-6.4 6.4H736c-19.2 6.4-38.4 19.2-64 25.6-32 12.8-70.4 12.8-102.4-6.4-6.4-6.4-12.8-6.4-19.2-12.8l-6.4-6.4c-6.4-12.8-12.8-25.6-6.4-38.4v-6.4c12.8 19.2 25.6 32 44.8 44.8h6.4c19.2 6.4 32 6.4 51.2 0 44.8-6.4 89.6-19.2 128-51.2 44.8-32 89.6-70.4 140.8-89.6 6.4 0 12.8-6.4 19.2-6.4 12.8 0 25.6-6.4 32 0 0 25.6 0 38.4-12.8 51.2z m0 0" fill="#E51818" p-id="3733"></path><path d="M262.4 307.2c12.8 32 38.4 51.2 64 70.4 12.8 12.8 32 19.2 44.8 19.2 19.2 0 38.4 6.4 64 6.4l25.6 6.4c19.2 12.8 19.2 12.8 0 32C448 448 448 454.4 448 467.2c12.8-6.4 25.6-6.4 38.4 0 6.4 12.8 25.6 12.8 44.8 19.2 12.8 6.4 32 0 44.8-6.4 6.4 0 12.8-6.4 19.2 0 12.8 6.4 19.2 6.4 32-6.4 6.4-6.4 12.8-6.4 12.8-12.8h-19.2c-12.8 0-25.6 0-32-12.8-12.8-6.4-19.2-12.8-12.8-19.2 38.4-32 76.8-70.4 128-83.2 25.6-6.4 57.6-12.8 83.2-12.8 12.8 0 19.2 0 25.6-12.8 19.2 0 19.2-6.4 25.6-19.2 6.4-6.4 6.4-12.8 6.4-19.2L832 294.4h-6.4c-25.6 12.8-51.2 12.8-76.8 25.6h-19.2c-25.6 0-44.8 0-70.4 6.4-12.8 0-19.2 6.4-32 12.8-38.4 19.2-70.4 57.6-115.2 76.8-12.8 0-19.2-19.2-38.4-19.2-12.8-12.8-25.6-12.8-44.8-19.2-32-12.8-57.6-32-76.8-64-12.8-12.8-19.2-25.6-32-38.4-25.6-25.6-76.8-44.8-115.2-32 25.6 19.2 51.2 32 57.6 64z m0 0" fill="#E51818" p-id="3734"></path></svg>