<?xml version="1.0" standalone="no"?><!DOCTYPE svg PUBLIC "-//W3C//DTD SVG 1.1//EN" "http://www.w3.org/Graphics/SVG/1.1/DTD/svg11.dtd"><svg t="1740674072013" class="icon" viewBox="0 0 1024 1024" version="1.1" xmlns="http://www.w3.org/2000/svg" p-id="4914" xmlns:xlink="http://www.w3.org/1999/xlink" width="200" height="200"><path d="M204.8 480l-32 12.8c-12.8-6.4 76.8-89.6 102.4-32 0 0 0 25.6-38.4 96-32 44.8-12.8 44.8 6.4 19.2 38.4-38.4 64-96 134.4-166.4 121.6-115.2 268.8-204.8 300.8-256 0 0-6.4 57.6-96 160 0 0 19.2 0 44.8-32 0 0 147.2-128 179.2-262.4 19.2 32 12.8 76.8-6.4 121.6-19.2 70.4-70.4 140.8-96 172.8 0 0 121.6-83.2 153.6-185.6 0 0 0 70.4-44.8 147.2-51.2 102.4 38.4-19.2 51.2-44.8-12.8 32 0 83.2-134.4 243.2 0 0 108.8-44.8 140.8-140.8 0-6.4 25.6 44.8-134.4 211.2l64-32 51.2-38.4c-44.8 102.4-198.4 160-294.4 224C454.4 768 371.2 876.8 364.8 928c0 0 0 64 32 64-44.8 12.8-115.2-19.2-166.4-70.4-64-51.2-121.6-204.8-57.6-320l57.6-89.6c12.8-19.2 12.8-38.4-25.6-32z" fill="#DD4012" p-id="4915"></path></svg>