<?xml version="1.0" standalone="no"?><!DOCTYPE svg PUBLIC "-//W3C//DTD SVG 1.1//EN" "http://www.w3.org/Graphics/SVG/1.1/DTD/svg11.dtd"><svg t="1740674044670" class="icon" viewBox="0 0 1024 1024" version="1.1" xmlns="http://www.w3.org/2000/svg" p-id="4027" xmlns:xlink="http://www.w3.org/1999/xlink" width="200" height="200"><path d="M512 32c121.6 0 224 108.8 224 236.8 0 25.6-6.4 57.6-12.8 83.2l-128-51.2c6.4-12.8 6.4-25.6 6.4-38.4 0-57.6-44.8-102.4-96-102.4s-96 44.8-96 102.4c0 19.2 6.4 38.4 12.8 51.2 6.4 12.8 19.2 25.6 32 38.4 6.4 6.4 12.8 6.4 19.2 19.2 76.8 57.6 166.4 76.8 268.8 83.2H844.8s6.4 0 6.4 6.4h6.4l6.4 6.4c6.4 0 6.4 6.4 12.8 6.4l6.4 6.4 6.4 6.4 6.4 6.4c70.4 76.8 89.6 192 38.4 288-64 115.2-198.4 153.6-300.8 89.6-25.6-12.8-44.8-32-57.6-51.2l96-89.6c6.4 6.4 12.8 19.2 25.6 25.6 44.8 25.6 102.4 12.8 128-38.4 25.6-44.8 12.8-108.8-32-134.4-12.8-6.4-32-12.8-51.2-12.8-19.2 0-32 6.4-44.8 12.8-6.4 0-12.8 6.4-25.6 12.8-96 51.2-147.2 115.2-204.8 204.8 0 6.4-6.4 6.4-6.4 12.8v12.8l-6.4 6.4-6.4 6.4-6.4 6.4-6.4 6.4-6.4 6.4-6.4 6.4-6.4 6.4-6.4 6.4-6.4 6.4-6.4 6.4s-6.4 0-6.4 6.4H384s-6.4 0-6.4 6.4l-6.4 6.4c-6.4 0-6.4 6.4-12.8 6.4h-6.4s-6.4 0-6.4 6.4h-6.4s-6.4 0-6.4 6.4h-6.4c-6.4 0-6.4 0-12.8 6.4-96 25.6-198.4-12.8-249.6-108.8-64-115.2-25.6-256 83.2-326.4 44.8-19.2 70.4-25.6 89.6-32L256 601.6c-12.8 0-19.2 6.4-32 12.8-38.4 25.6-51.2 89.6-25.6 134.4 25.6 44.8 83.2 64 128 38.4 12.8-6.4 25.6-25.6 32-38.4 6.4-12.8 12.8-32 12.8-51.2v-25.6c12.8-76.8 0-179.2-57.6-288-12.8-38.4-19.2-64-19.2-64v-6.4-6.4-6.4-6.4-6.4-6.4-6.4-12.8-12.8-6.4-12.8-6.4-12.8-6.4V192C320 108.8 409.6 32 512 32z" fill="#008756" p-id="4028"></path></svg>