<?xml version="1.0" standalone="no"?><!DOCTYPE svg PUBLIC "-//W3C//DTD SVG 1.1//EN" "http://www.w3.org/Graphics/SVG/1.1/DTD/svg11.dtd"><svg t="1740673981049" class="icon" viewBox="0 0 1024 1024" version="1.1" xmlns="http://www.w3.org/2000/svg" p-id="2842" xmlns:xlink="http://www.w3.org/1999/xlink" width="200" height="200"><path d="M646.4 864c-25.6-6.4-51.2-6.4-76.8 0-19.2 6.4-32 12.8-38.4 32-19.2 32-44.8 12.8-64-12.8-19.2-25.6-32-57.6-44.8-121.6-12.8-70.4-64-172.8-147.2-243.2C358.4 448 409.6 339.2 422.4 275.2c12.8-64 25.6-96 44.8-121.6 19.2-32 44.8-51.2 64-25.6 6.4 12.8 19.2 25.6 38.4 32 25.6 6.4 51.2 6.4 76.8 0 12.8-6.4 38.4-19.2 38.4-32 6.4-19.2-19.2-44.8-25.6-51.2C614.4 32 544 19.2 486.4 19.2c-64 6.4-140.8 32-185.6 96-44.8 51.2-57.6 128-89.6 198.4C172.8 409.6 102.4 467.2 51.2 512c51.2 44.8 121.6 102.4 160 198.4 32 76.8 44.8 147.2 89.6 198.4 51.2 64 128 89.6 185.6 96 64 6.4 134.4-12.8 179.2-57.6 6.4-6.4 32-32 25.6-51.2-6.4-12.8-32-25.6-44.8-32z m0 0" fill="#FE7D1F" p-id="2843"></path><path d="M851.2 544c-83.2-32-134.4 25.6-147.2 44.8-25.6 38.4-32 128 38.4 153.6 12.8 6.4 32 6.4 44.8 0 12.8-6.4 25.6-19.2 32-32 6.4-25.6-6.4-70.4-57.6-64 6.4-6.4 32-12.8 51.2-6.4 19.2 6.4 51.2 32 32 96-19.2 64-102.4 51.2-121.6 38.4-19.2-12.8-38.4-32-38.4-70.4-12.8 0-38.4 0-44.8-12.8-6.4-6.4-12.8-19.2-19.2-57.6 0-38.4-32-89.6-64-121.6 32-32 57.6-83.2 64-121.6 0-38.4 6.4-44.8 19.2-57.6 12.8-6.4 32-12.8 44.8-12.8 0-38.4 19.2-51.2 38.4-70.4 19.2-12.8 96-25.6 121.6 38.4 19.2 64-12.8 89.6-32 96-19.2 6.4-44.8 0-51.2-6.4 51.2 6.4 64-38.4 57.6-64-6.4-12.8-12.8-25.6-32-32-12.8-6.4-32-6.4-44.8 0-70.4 25.6-64 115.2-38.4 153.6 19.2 19.2 64 76.8 147.2 44.8 83.2-32 102.4-115.2 102.4-115.2 19.2-121.6-70.4-217.6-192-217.6S608 230.4 608 230.4c-44.8 6.4-64 19.2-83.2 51.2-12.8 32-32 96-51.2 128s-44.8 64-83.2 102.4c38.4 38.4 64 64 83.2 102.4 19.2 38.4 38.4 102.4 57.6 128 19.2 32 38.4 44.8 83.2 51.2 0 0 32 83.2 153.6 83.2s211.2-96 192-217.6c-6.4 0-19.2-89.6-108.8-115.2z m0 0" fill="#FE7D1F" p-id="2844"></path></svg>