<?xml version="1.0" standalone="no"?><!DOCTYPE svg PUBLIC "-//W3C//DTD SVG 1.1//EN" "http://www.w3.org/Graphics/SVG/1.1/DTD/svg11.dtd"><svg t="1740674085053" class="icon" viewBox="0 0 1024 1024" version="1.1" xmlns="http://www.w3.org/2000/svg" p-id="6119" xmlns:xlink="http://www.w3.org/1999/xlink" width="200" height="200"><path d="M134.4 748.8c25.6 192 300.8 166.4 300.8 0V467.2c25.6-172.8 115.2-268.8 281.6-275.2 140.8 12.8 204.8-57.6 249.6-179.2-140.8 96-211.2 32-345.6 70.4C518.4 121.6 352 198.4 320 448v268.8c-6.4 32-64 32-76.8 0V448c0-51.2-12.8-76.8-44.8-83.2 19.2-57.6 128 44.8 134.4-96-64 76.8-153.6-6.4-160 96H57.6c76.8 19.2 83.2 38.4 83.2 115.2l-6.4 268.8z" fill="#E60012" p-id="6120"></path><path d="M179.2 876.8c102.4 76.8 275.2 32 288-128V467.2c12.8-134.4 89.6-211.2 230.4-236.8 70.4-6.4 140.8 6.4 198.4-57.6-19.2 76.8-64 128-147.2 140.8-108.8 6.4-160 64-179.2 160v300.8c0 198.4-281.6 288-390.4 102.4z" fill="#E60012" p-id="6121"></path><path d="M384 1004.8c147.2 19.2 294.4-44.8 300.8-262.4V576c0-44.8 19.2-64 51.2-51.2 19.2 12.8 25.6 32 19.2 51.2-6.4 12.8-32 6.4-38.4-12.8-6.4 96 115.2 115.2 140.8 32 12.8-64-6.4-115.2-70.4-160-89.6-38.4-192 12.8-192 96v281.6c-25.6 140.8-108.8 179.2-211.2 192z" fill="#E60012" p-id="6122"></path></svg>