<?xml version="1.0" standalone="no"?><!DOCTYPE svg PUBLIC "-//W3C//DTD SVG 1.1//EN" "http://www.w3.org/Graphics/SVG/1.1/DTD/svg11.dtd"><svg t="1740674089275" class="icon" viewBox="0 0 1024 1024" version="1.1" xmlns="http://www.w3.org/2000/svg" p-id="6268" xmlns:xlink="http://www.w3.org/1999/xlink" width="200" height="200"><path d="M704 140.8h313.6l-288 697.6H6.4L704 140.8z" fill="#00A1DB" p-id="6269"></path><path d="M640 710.4s51.2 0 76.8-38.4c25.6-38.4 19.2-70.4 19.2-70.4v-96l6.4-12.8s-6.4 32 19.2 44.8c25.6 12.8 64-6.4 64-38.4s-12.8-70.4-70.4-70.4c0 0-12.8-12.8-32-12.8 0 0 6.4-32-19.2-38.4 0 0-19.2-6.4-32 6.4 0 0-6.4 6.4-6.4 0s-6.4-19.2-32-19.2C608 371.2 608 384 608 390.4c0 6.4-6.4 0-6.4 0-12.8-12.8-32 0-32 0-19.2 0-19.2 38.4-19.2 38.4-19.2-6.4-32 6.4-32 6.4-57.6 0-70.4 38.4-70.4 70.4 0 32 32 57.6 64 38.4 25.6-12.8 25.6-44.8 25.6-44.8L544 512v89.6s-6.4 32 19.2 70.4c19.2 38.4 70.4 38.4 76.8 38.4z" fill="#FFFFFF" p-id="6270"></path><path d="M524.8 454.4c-51.2 0-51.2 51.2-51.2 51.2v6.4c0 12.8 12.8 25.6 25.6 25.6 12.8-6.4 19.2-12.8 19.2-25.6 0-6.4 0-12.8-6.4-12.8 0-12.8 6.4-12.8 6.4-12.8h19.2c25.6 0 25.6 25.6 25.6 25.6v76.8c12.8 0 32 12.8 32 12.8V499.2c-6.4-12.8-19.2-44.8-70.4-44.8z m224 0c51.2 0 51.2 51.2 51.2 51.2v6.4c0 12.8-12.8 25.6-25.6 25.6s-25.6-12.8-25.6-25.6c0-6.4 0-12.8 6.4-12.8 0-12.8-6.4-12.8-6.4-12.8h-19.2c-19.2 0-19.2 25.6-19.2 25.6v76.8c-12.8 0-32 12.8-32 12.8V499.2c6.4-12.8 19.2-44.8 70.4-44.8zM640 697.6h12.8c64-12.8 64-89.6 64-89.6s-32 6.4-38.4 38.4c0 0-19.2-32-38.4-32-25.6-6.4-38.4 25.6-38.4 25.6-6.4-25.6-38.4-32-38.4-32s-6.4 76.8 64 89.6H640z" fill="#E63E32" p-id="6271"></path><path d="M588.8 448v-19.2s6.4 0 6.4-12.8-6.4-12.8-6.4-12.8c-6.4 0-12.8 0-12.8 12.8s6.4 12.8 12.8 12.8V448c-19.2-6.4-25.6 0-25.6 0 25.6 12.8 25.6 19.2 32 25.6 6.4 6.4 6.4 25.6 6.4 25.6v115.2c0-6.4 19.2-19.2 19.2-19.2v-64c0-38.4-12.8-51.2-12.8-51.2 0-19.2-12.8-25.6-19.2-32z m76.8-6.4s-19.2 0-25.6-6.4v-12.8s6.4-6.4 6.4-12.8c0-12.8-6.4-12.8-6.4-12.8-6.4 0-12.8 0-12.8 12.8s6.4 12.8 12.8 12.8v12.8c-12.8 6.4-32 6.4-32 6.4s19.2 6.4 25.6 32c12.8-25.6 32-32 32-32z m25.6 6.4v-19.2s6.4-6.4 6.4-12.8c0-12.8-6.4-12.8-12.8-12.8s-12.8 6.4-6.4 12.8c0 6.4 6.4 12.8 6.4 12.8l6.4 19.2c-12.8 6.4-19.2 12.8-32 32 0 0-12.8 19.2-12.8 51.2v64s19.2 12.8 19.2 19.2V492.8s0-19.2 6.4-25.6c6.4-6.4 6.4-12.8 32-19.2 6.4 0 0-6.4-12.8 0z" fill="#E63E32" p-id="6272"></path></svg>