<?xml version="1.0" standalone="no"?><!DOCTYPE svg PUBLIC "-//W3C//DTD SVG 1.1//EN" "http://www.w3.org/Graphics/SVG/1.1/DTD/svg11.dtd"><svg t="1740673983443" class="icon" viewBox="0 0 1024 1024" version="1.1" xmlns="http://www.w3.org/2000/svg" p-id="2990" xmlns:xlink="http://www.w3.org/1999/xlink" width="200" height="200"><path d="M185.6 569.6l76.8 38.4c44.8 32 96-44.8 128-70.4 25.6-25.6 512-518.4 512-518.4s6.4 89.6-83.2 179.2L358.4 601.6s-51.2 51.2-96 19.2c-19.2-19.2-44.8-38.4-76.8-51.2z m0 0" fill="#EC1D27" p-id="2991"></path><path d="M121.6 576c38.4-12.8 76.8-6.4 102.4 19.2 57.6 44.8 76.8 70.4 172.8-19.2 96-89.6 428.8-339.2 428.8-339.2l-38.4 70.4c-12.8 25.6-32 51.2-57.6 70.4-32 25.6-364.8 256-364.8 256-44.8 25.6-102.4 19.2-134.4-19.2-25.6-32-70.4-44.8-108.8-38.4z m0 0" fill="#F15C3E" p-id="2992"></path><path d="M128 576s44.8-12.8 96 38.4 96 64 198.4-6.4c6.4-6.4 275.2-166.4 275.2-166.4L614.4 544c-19.2 19.2-51.2 38.4-76.8 51.2-51.2 19.2-185.6 76.8-198.4 76.8-44.8 12.8-89.6-6.4-115.2-44.8-57.6-64-102.4-44.8-96-51.2z m0 0" fill="#F58466" p-id="2993"></path><path d="M134.4 576c32 12.8 57.6 25.6 76.8 51.2 44.8 51.2 76.8 70.4 160 51.2 6.4 0 179.2-51.2 179.2-51.2s-57.6 76.8-89.6 147.2c-96-12.8-179.2-57.6-243.2-128s-51.2-64-83.2-70.4z m0 0" fill="#F8AB8F" p-id="2994"></path><path d="M435.2 838.4c-6.4 12.8-6.4 19.2-12.8 32 51.2 44.8 108.8 89.6 166.4 128 76.8 0 153.6-19.2 224-44.8 76.8-25.6-243.2-57.6-377.6-115.2z m0 0" fill="#EA1B23" p-id="2995"></path><path d="M147.2 588.8s19.2 0 83.2 89.6c57.6 70.4 217.6 134.4 217.6 134.4s-64 121.6 0 166.4c0 0-70.4-6.4-217.6-281.6-19.2-44.8-51.2-76.8-83.2-108.8z m0 0" fill="#F7AC8F" p-id="2996"></path><path d="M422.4 889.6s-32 102.4 102.4 102.4l-102.4-102.4z m0 0" fill="#EA1B23" p-id="2997"></path></svg>