<?xml version="1.0" standalone="no"?><!DOCTYPE svg PUBLIC "-//W3C//DTD SVG 1.1//EN" "http://www.w3.org/Graphics/SVG/1.1/DTD/svg11.dtd"><svg t="1740674057176" class="icon" viewBox="0 0 1024 1024" version="1.1" xmlns="http://www.w3.org/2000/svg" p-id="4469" xmlns:xlink="http://www.w3.org/1999/xlink" width="200" height="200"><path d="M512 32c262.4 0 480 217.6 480 480s-217.6 480-480 480S32 774.4 32 512C38.4 249.6 249.6 32 512 32zM243.2 217.6s0-19.2 12.8-25.6c0 0 0-12.8 6.4-19.2 0 0 32-38.4 96-51.2 0 0 44.8-6.4 83.2 6.4v-25.6s6.4-6.4 12.8-6.4h12.8v-12.8s-6.4-6.4-6.4 0h-6.4s6.4-12.8 25.6-12.8c0 0 12.8 0 12.8 25.6 0 0-6.4 12.8-19.2 19.2 0 0-6.4 0-12.8-6.4 0 0 0-6.4-6.4-6.4 0 0-12.8 0-12.8 12.8 0 0 0 12.8 19.2 12.8 0 0 12.8 6.4 32-12.8 0 0 6.4-6.4 6.4-19.2 6.4-6.4 12.8-32 38.4-32 0 0 19.2 0 32 6.4 0 0-25.6 0-25.6 12.8 0 0-6.4 12.8 6.4 12.8 0 0 25.6-12.8 44.8 0l25.6 12.8 12.8-6.4s12.8-12.8 12.8 0c0 0 6.4 12.8 25.6 19.2l64 44.8s6.4 6.4 6.4 0c0 0 6.4-19.2 19.2-19.2 0 0 12.8 0 19.2 12.8 0 0 6.4 12.8-6.4 19.2 0 0-6.4 0-12.8-6.4 0 0 0-6.4 0 0 0 0 6.4 6.4 6.4 0 0 0 0-6.4-12.8-12.8 0 0-12.8 0-12.8 12.8 0 0 0 12.8 19.2 25.6 0 0 6.4 0 12.8-6.4 0 0 0 12.8-12.8 12.8 0 0-6.4 0-12.8-6.4 0 0-6.4-6.4-6.4 6.4 0 0 0 12.8 25.6 12.8 0 0 6.4 12.8-19.2 6.4 0 0-19.2-6.4-19.2-25.6v-12.8s0-6.4-6.4-6.4l-89.6-64s-6.4-6.4-25.6 0c0 0-44.8 19.2-83.2 6.4 0 0-25.6 38.4-57.6 32 0 0-19.2 0-38.4-19.2 0 0-19.2-19.2-64-12.8 0 0-38.4 6.4-70.4 38.4 0 0-12.8 32-32 32-12.8 0-19.2 25.6-19.2 25.6z m-19.2 563.2s-19.2 0-25.6-12.8c0 0-12.8 0-19.2-6.4 0 0-38.4-32-51.2-96 0 0-6.4-44.8 6.4-83.2h-25.6s-6.4 0-6.4-12.8v-12.8h-12.8s-6.4 0 0 6.4v6.4s-12.8-6.4-12.8-25.6c0 0 0-12.8 25.6-12.8 0 0 12.8 6.4 19.2 19.2 0 0 0 6.4-6.4 12.8 0 0-6.4 0-6.4 6.4 0 0 0 12.8 12.8 12.8 0 0 12.8 0 12.8-19.2 0 0 6.4-12.8-12.8-32 0 0-6.4-6.4-19.2-6.4 0 0-25.6-6.4-25.6-32 0 0 0-19.2 6.4-32 0 0 0 25.6 12.8 25.6 0 0 12.8 6.4 12.8-6.4 0 0-12.8-25.6 0-44.8l12.8-25.6-6.4-12.8s-12.8-12.8 0-12.8c0 0 12.8-6.4 19.2-25.6l44.8-64s6.4-6.4 0-6.4c0 0-19.2-6.4-19.2-19.2 0 0 0-12.8 12.8-19.2 0 0 12.8-6.4 19.2 6.4 0 0 0 6.4-6.4 12.8 0 0-6.4 0 0 0 0 0 6.4-6.4 0-6.4 0 0-6.4 0-12.8 12.8 0 0 0 12.8 12.8 12.8 0 0 12.8 0 25.6-19.2 0 0 0-6.4-6.4-12.8 0 0 12.8 0 12.8 12.8 0 0 0 6.4-6.4 12.8 0 0-6.4 6.4 6.4 6.4 0 0 12.8 0 12.8-25.6 0 0 12.8-6.4 6.4 19.2 0 0-6.4 19.2-25.6 19.2h-12.8s-6.4 0-6.4 6.4L121.6 390.4s-6.4 6.4 0 25.6c0 0 19.2 44.8 6.4 83.2 0 0 38.4 25.6 32 57.6 0 0 0 19.2-19.2 38.4 0 0-19.2 19.2-12.8 64 0 0 6.4 38.4 38.4 70.4 0 0 32 12.8 32 32 0 12.8 25.6 19.2 25.6 19.2z m563.2 25.6s0 19.2-12.8 25.6c0 0 0 12.8-6.4 19.2 0 0-32 38.4-96 51.2 0 0-44.8 6.4-83.2-6.4v25.6s-6.4 6.4-12.8 6.4h-12.8v12.8s6.4 6.4 6.4 0H576s-6.4 12.8-25.6 12.8c0 0-12.8 0-6.4-25.6 0 0 6.4-12.8 19.2-19.2 0 0 6.4 0 12.8 6.4 0 0 0 6.4 6.4 6.4 0 0 12.8 0 12.8-12.8 0 0 0-12.8-19.2-12.8 0 0-12.8-6.4-32 12.8 0 0-6.4 6.4-6.4 19.2 0 0-6.4 25.6-32 25.6 0 0-19.2 0-32-6.4 0 0 25.6 0 25.6-12.8 0 0 6.4-12.8-6.4-12.8 0 0-25.6 12.8-44.8 0l-25.6-12.8-12.8 6.4s-12.8 12.8-12.8 0c0 0-6.4-12.8-25.6-19.2l-64-44.8s-6.4-6.4-6.4 0c0 0-6.4 19.2-19.2 19.2 0 0-12.8 0-19.2-12.8 0 0-6.4-12.8 6.4-19.2 0 0 6.4 0 12.8 6.4 0 0 0 6.4 0 0 0 0-6.4-6.4-6.4 0 0 0 0 6.4 12.8 12.8 0 0 12.8 0 12.8-12.8 0 0 0-12.8-19.2-25.6 0 0-6.4 0-12.8 6.4 0 0 0-12.8 12.8-12.8 0 0 6.4 0 12.8 6.4 0 0 6.4 6.4 6.4-6.4 0 0 0-12.8-25.6-12.8 0 0-6.4-12.8 19.2-6.4 0 0 19.2 6.4 19.2 25.6v12.8s0 6.4 6.4 6.4l83.2 57.6s6.4 6.4 25.6 0c0 0 44.8-19.2 83.2-6.4 0 0 25.6-38.4 57.6-32 0 0 19.2 0 38.4 19.2 0 0 19.2 19.2 64 12.8 0 0 38.4-6.4 70.4-38.4 0 0 12.8-32 32-32 0 6.4 12.8-12.8 12.8-12.8z m12.8-563.2s19.2-6.4 25.6 12.8c0 0 12.8 0 19.2 6.4 0 0 38.4 25.6 57.6 96 0 0 12.8 44.8 0 83.2 0 0 19.2-6.4 25.6 0 0 0 6.4 0 6.4 12.8v12.8h12.8s6.4-6.4 0-6.4v-6.4s12.8 6.4 12.8 19.2c0 0 0 12.8-25.6 12.8 0 0-12.8 0-19.2-12.8 0 0 0-6.4 6.4-12.8 0 0 6.4 0 6.4-6.4 0 0 0-12.8-12.8-12.8 0 0-12.8 0-12.8 19.2 0 0-6.4 12.8 12.8 32 0 0 6.4 6.4 19.2 6.4 0 0 25.6 6.4 25.6 25.6 0 0 6.4 19.2-6.4 32 0 0 0-25.6-12.8-25.6 0 0-12.8-6.4-12.8 6.4 0 0 12.8 25.6 0 44.8 0 0-6.4 12.8-6.4 32l6.4 12.8s12.8 12.8 0 12.8c0 0-12.8 6.4-19.2 25.6l-44.8 64s-6.4 6.4 6.4 6.4c0 0 19.2 6.4 19.2 19.2 0 0 0 12.8-12.8 19.2 0 0-12.8 6.4-19.2-6.4 0 0 0-6.4 6.4-12.8 0 0 6.4 0 0 0 0 0-6.4 6.4 0 6.4 0 0 6.4 0 6.4-12.8 0 0 0-12.8-12.8-12.8 0 0-19.2 0-19.2 19.2 0 0 0 6.4 6.4 12.8 0 0-12.8 0-12.8-12.8 0 0 0-6.4 6.4-12.8 0 0 0-6.4-6.4-6.4 0 0-12.8 0-12.8 25.6 0 0-12.8 6.4-6.4-19.2 0 0 6.4-19.2 25.6-19.2h12.8s6.4 0 6.4-6.4l51.2-89.6s6.4-6.4 0-25.6c0 0-19.2-38.4-12.8-76.8 0 0-38.4-25.6-38.4-57.6 0 0-6.4-19.2 19.2-38.4 0 0 19.2-19.2 6.4-64 0 0-6.4-38.4-38.4-64 0 0-32-6.4-32-32 12.8-19.2-12.8-25.6-12.8-25.6z m-441.6-19.2s83.2 0 147.2 51.2h-6.4s-147.2-57.6-262.4 57.6c0 0 89.6-44.8 160-25.6l-6.4 12.8S236.8 326.4 192 505.6c0 0 70.4-96 128-102.4l-6.4 6.4s-134.4 89.6-83.2 262.4c0 0 6.4-102.4 57.6-160 0 0-70.4 140.8 57.6 281.6 0 0-51.2-108.8-25.6-172.8 0 0 0 166.4 185.6 211.2 0 0-89.6-64-102.4-134.4 0 0 83.2 140.8 268.8 89.6 0 0-115.2-6.4-160-64 0 0 140.8 76.8 275.2-51.2 0 0-108.8 44.8-166.4 19.2 0 0 160 0 211.2-185.6 0 0-64 96-128 102.4 0 0 140.8-102.4 89.6-268.8 0 0 0 89.6-57.6 153.6 0 0 64-160-64-275.2 0 0 44.8 76.8 25.6 166.4 0 0-12.8-172.8-192-204.8 0 0 89.6 57.6 102.4 121.6-102.4-128-249.6-76.8-249.6-76.8z" fill="#E5B000" p-id="4470"></path></svg>