<?xml version="1.0" standalone="no"?><!DOCTYPE svg PUBLIC "-//W3C//DTD SVG 1.1//EN" "http://www.w3.org/Graphics/SVG/1.1/DTD/svg11.dtd"><svg t="1740674065433" class="icon" viewBox="0 0 1024 1024" version="1.1" xmlns="http://www.w3.org/2000/svg" p-id="4616" xmlns:xlink="http://www.w3.org/1999/xlink" width="200" height="200"><path d="M697.6 172.8h313.6l-281.6 678.4H12.8L697.6 172.8z" fill="#D5454C" p-id="4617"></path><path d="M192 723.2h19.2s0-6.4-12.8-6.4c0 0-6.4 0-6.4 6.4z" fill="#FFFFFF" p-id="4618"></path><path d="M192 748.8c0-6.4 12.8-6.4 12.8-6.4 6.4 0 12.8 6.4 12.8 6.4H192z m544-275.2c6.4-6.4 25.6-19.2 25.6-19.2-44.8 0-89.6 38.4-89.6 38.4l-172.8 230.4c-19.2 6.4-12.8-6.4-12.8-6.4l179.2-236.8c32-32 121.6-44.8 121.6-44.8H640c-89.6 0-115.2 51.2-115.2 51.2l-140.8 192c-44.8 57.6-76.8 64-76.8 64l-76.8 6.4c-19.2-19.2-32-12.8-32-12.8-12.8 0-25.6 12.8-25.6 12.8l-25.6 6.4h595.2l19.2-12.8h-19.2c-12.8 12.8-32 12.8-32 12.8-115.2-6.4-147.2-19.2-147.2-19.2-19.2 0-12.8-6.4-12.8-6.4l185.6-256z" fill="#FFFFFF" p-id="4619"></path></svg>