<?xml version="1.0" standalone="no"?><!DOCTYPE svg PUBLIC "-//W3C//DTD SVG 1.1//EN" "http://www.w3.org/Graphics/SVG/1.1/DTD/svg11.dtd"><svg t="1740673993695" class="icon" viewBox="0 0 1024 1024" version="1.1" xmlns="http://www.w3.org/2000/svg" p-id="3437" xmlns:xlink="http://www.w3.org/1999/xlink" width="200" height="200"><path d="M396.8 614.4c38.4-25.6-19.2-192 38.4-268.8 0 0 57.6-115.2 224-121.6 0 0 166.4-6.4 256-102.4L992 12.8S985.6 192 883.2 256c-128 83.2-390.4-38.4-390.4 185.6 0 128-19.2 236.8-96 236.8-83.2 6.4-128-32-179.2-70.4-44.8-25.6-83.2 0-115.2 19.2 19.2 0 121.6 51.2 140.8 89.6 19.2 38.4 83.2 102.4 185.6 134.4 108.8 25.6 217.6 6.4 217.6 6.4s-147.2 76.8-281.6 19.2c-128-57.6-76.8-51.2-115.2-57.6-38.4-12.8-51.2 70.4 19.2 108.8 70.4 38.4 108.8 64 268.8 51.2 153.6-6.4 243.2-12.8 217.6-12.8-25.6 0-140.8 44.8-326.4 38.4-179.2-6.4-268.8-51.2-275.2-128-12.8-76.8 38.4-96 57.6-108.8 0 6.4-76.8-134.4-153.6-140.8 0 0 76.8-76.8 134.4-64 89.6 19.2 166.4 76.8 204.8 51.2z" fill="#342A76" p-id="3438"></path><path d="M576 633.6c108.8 25.6 243.2 6.4 326.4-64 6.4 0-32 83.2-121.6 108.8-96 25.6-230.4-51.2-204.8-44.8zM844.8 524.8c-96 32-128 12.8-179.2-6.4 0 0 108.8-6.4 166.4-32 57.6-25.6 121.6-76.8 121.6-76.8s-38.4 89.6-108.8 115.2zM883.2 384c-102.4 38.4-134.4 19.2-185.6 0 0 0 96 6.4 172.8-51.2 76.8-51.2 102.4-76.8 102.4-76.8s-19.2 89.6-89.6 128z" fill="#342A76" p-id="3439"></path></svg>