<?xml version="1.0" standalone="no"?><!DOCTYPE svg PUBLIC "-//W3C//DTD SVG 1.1//EN" "http://www.w3.org/Graphics/SVG/1.1/DTD/svg11.dtd"><svg t="1747894202484" class="icon" viewBox="0 0 1024 1024" version="1.1" xmlns="http://www.w3.org/2000/svg" p-id="938" xmlns:xlink="http://www.w3.org/1999/xlink" width="200" height="200"><path d="M992 512c0 268.8-217.6 480-480 480-268.8 0-480-217.6-480-480C32 243.2 249.6 32 512 32c268.8 0 480 211.2 480 480" fill="#E60012" p-id="939"></path><path d="M832 224c-76.8-51.2-166.4-64-243.2-57.6-76.8 12.8-166.4 76.8-166.4 166.4 0 51.2-44.8 89.6-96 89.6-70.4 0-108.8-51.2-179.2-51.2-51.2 0-83.2 19.2-102.4 38.4 0 0-6.4 6.4-6.4 12.8s0 6.4 6.4 6.4c32 12.8 70.4 25.6 121.6 64 64 44.8 102.4 89.6 140.8 140.8C454.4 844.8 691.2 832 774.4 800c83.2-32 147.2-102.4 179.2-172.8 0-6.4-6.4-6.4-6.4-6.4-6.4 12.8-57.6 76.8-140.8 76.8-96 0-172.8-76.8-172.8-172.8 0-83.2 64-172.8 179.2-172.8 96 0 185.6 83.2 185.6 179.2C992 377.6 908.8 268.8 832 224" fill="#FFEA00" p-id="940"></path></svg>