<?xml version="1.0" encoding="UTF-8"?>
<svg version="1.1" xmlns="http://www.w3.org/2000/svg" width="200" height="200">
<path d="M0 0 C6.98134819 4.23601376 11.76344503 10.72467385 16.6953125 17.08203125 C17.34757813 17.91734375 17.99984375 18.75265625 18.671875 19.61328125 C19.25710937 20.36609375 19.84234375 21.11890625 20.4453125 21.89453125 C21.0021875 22.60609375 21.5590625 23.31765625 22.1328125 24.05078125 C23.14142691 25.36197998 24.12310739 26.69455575 25.0703125 28.05078125 C28.56528948 32.73722766 32.00768672 34.32594364 37.5390625 36.05078125 C41.0267142 37.19031101 44.27939775 38.65736471 47.6328125 40.14453125 C54.47270368 43.04342754 61.28520885 44.21445493 68.64233398 45.05688477 C74.08884671 45.70142625 78.62464241 46.96876691 83.6953125 49.08203125 C83.6953125 49.41203125 83.6953125 49.74203125 83.6953125 50.08203125 C82.97690186 50.17701904 82.25849121 50.27200684 81.51831055 50.36987305 C63.78276932 52.71293645 63.78276932 52.71293645 46.3203125 56.51953125 C45.62897217 56.7002417 44.93763184 56.88095215 44.2253418 57.06713867 C31.79778162 60.5378721 20.08212271 66.04884552 8.42749023 71.50073242 C-5.93047759 78.19932753 -21.16610694 84.62420734 -37.0546875 79.51953125 C-41.6889371 77.63349944 -45.30210405 75.06856663 -49.0390625 71.765625 C-51.92116348 69.62392582 -54.98290429 68.3685977 -58.3046875 67.08203125 C-59.03848633 66.79448975 -59.77228516 66.50694824 -60.52832031 66.21069336 C-63.03268245 65.23913822 -65.54261648 64.28347086 -68.0546875 63.33203125 C-68.963396 62.98712646 -69.87210449 62.64222168 -70.80834961 62.28686523 C-77.15312817 59.8841641 -83.50543849 57.50193063 -89.8671875 55.14453125 C-90.65770508 54.85030273 -91.44822266 54.55607422 -92.26269531 54.25292969 C-92.9997168 53.98125977 -93.73673828 53.70958984 -94.49609375 53.4296875 C-95.45817749 53.0740271 -95.45817749 53.0740271 -96.43969727 52.71118164 C-100.9291786 51.1966649 -104.79308665 50.97544235 -109.5546875 51.01953125 C-111.44960937 51.03306641 -111.44960937 51.03306641 -113.3828125 51.046875 C-114.34703125 51.05847656 -115.31125 51.07007813 -116.3046875 51.08203125 C-114.12679268 45.89549824 -110.26235552 43.48509304 -105.3046875 41.08203125 C-102.46484375 40.5 -102.46484375 40.5 -99.4921875 40.14453125 C-88.68593508 38.72373447 -80.85679521 31.82713184 -72.67871094 25.15307617 C-63.60592361 17.91919773 -53.18133269 12.19076468 -41.3046875 13.08203125 C-38.26956816 13.62317656 -35.28846597 14.30845905 -32.3046875 15.08203125 C-31.16 13.59703125 -31.16 13.59703125 -29.9921875 12.08203125 C-22.61396063 3.43291363 -11.72822024 -4.67140975 0 0 Z M-73.9921875 33.14453125 C-75.90485599 35.96799426 -75.98922186 38.7380955 -76.3046875 42.08203125 C-70.3646875 43.07203125 -70.3646875 43.07203125 -64.3046875 44.08203125 C-64.64537657 37.39167152 -64.64537657 37.39167152 -68.3046875 32.08203125 C-72.07288761 31.7268224 -72.07288761 31.7268224 -73.9921875 33.14453125 Z " fill="#EF4638" transform="translate(116.3046875,60.91796875)"/>
<path d="M0 0 C6.98134819 4.23601376 11.76344503 10.72467385 16.6953125 17.08203125 C17.67371094 18.335 17.67371094 18.335 18.671875 19.61328125 C19.81751349 21.086966 20.95969383 22.56334859 22.09765625 24.04296875 C25.10977911 27.88729182 28.24101404 31.62773279 31.6953125 35.08203125 C31.07269531 35.00984375 30.45007813 34.93765625 29.80859375 34.86328125 C9.56359593 32.83031076 -8.13376507 34.51861845 -27.47119141 40.92431641 C-36.43355134 43.87992733 -44.40046701 45.38761433 -53.8671875 45.20703125 C-54.78048828 45.19800781 -55.69378906 45.18898437 -56.63476562 45.1796875 C-58.85836069 45.15640378 -61.08137427 45.12370835 -63.3046875 45.08203125 C-63.49804688 44.46714844 -63.69140625 43.85226563 -63.890625 43.21875 C-64.28121094 42.00638672 -64.28121094 42.00638672 -64.6796875 40.76953125 C-64.93492188 39.96902344 -65.19015625 39.16851562 -65.453125 38.34375 C-66.29300561 35.85478597 -66.29300561 35.85478597 -68.3046875 33.08203125 C-70.73388615 32.94762347 -70.73388615 32.94762347 -73.3046875 34.08203125 C-74.68761843 36.63721222 -75.52260399 39.29069254 -76.3046875 42.08203125 C-82.3065012 42.30027902 -87.49702454 41.58772165 -93.3046875 40.08203125 C-90.04661055 37.59148204 -86.68953267 35.27166802 -83.3046875 32.95703125 C-78.81168719 29.88374278 -74.47266583 26.68346864 -70.1796875 23.33203125 C-61.48364487 16.73503339 -52.38214521 12.25073861 -41.3046875 13.08203125 C-38.26956816 13.62317656 -35.28846597 14.30845905 -32.3046875 15.08203125 C-31.5415625 14.09203125 -30.7784375 13.10203125 -29.9921875 12.08203125 C-22.61396063 3.43291363 -11.72822024 -4.67140975 0 0 Z " fill="#75C3AF" transform="translate(116.3046875,60.91796875)"/>
<path d="M0 0 C0.99 0.99 0.99 0.99 2 2 C1.28158936 2.09498779 0.56317871 2.18997559 -0.17700195 2.2878418 C-17.91254318 4.6309052 -17.91254318 4.6309052 -35.375 8.4375 C-36.06634033 8.61821045 -36.75768066 8.7989209 -37.4699707 8.98510742 C-49.89753088 12.45584085 -61.61318979 17.96681427 -73.26782227 23.41870117 C-87.62579009 30.11729628 -102.86141944 36.54217609 -118.75 31.4375 C-124.28768504 29.17208339 -131.22612081 25.54775837 -134 20 C-133.36835938 20.0721875 -132.73671875 20.144375 -132.0859375 20.21875 C-116.03420977 21.88405893 -103.20917661 20.22611247 -88.0625 15 C-87.34022217 14.7510498 -86.61794434 14.50209961 -85.8737793 14.24560547 C-81.94849999 12.8443427 -78.53207186 11.2504694 -75 9 C-68.26261049 5.59897612 -61.16606259 3.30965007 -54 1 C-53.33315186 0.75427246 -52.66630371 0.50854492 -51.97924805 0.25537109 C-46.27266362 -1.79907469 -40.84516407 -2.73951377 -34.8125 -3.25 C-33.89557373 -3.33080811 -32.97864746 -3.41161621 -32.03393555 -3.49487305 C-21.20640328 -4.35040287 -10.16256638 -4.38838093 0 0 Z " fill="#C1D567" transform="translate(198,109)"/>
<path d="M0 0 C7.00931969 4.17839516 11.78949846 10.72136242 16.71484375 17.0703125 C17.69324219 18.32328125 17.69324219 18.32328125 18.69140625 19.6015625 C19.83704474 21.07524725 20.97922508 22.55162984 22.1171875 24.03125 C25.12931036 27.87557307 28.26054529 31.61601404 31.71484375 35.0703125 C31.09222656 34.998125 30.46960938 34.9259375 29.828125 34.8515625 C22.96692944 34.16257215 16.16966694 33.96372804 9.27734375 33.9453125 C8.36243164 33.9364502 7.44751953 33.92758789 6.50488281 33.91845703 C1.37961272 33.91019935 -3.18730777 34.40862311 -8.22265625 35.4453125 C-11.48675435 35.79427736 -13.38709979 35.70216195 -16.10205078 33.79199219 C-20.00504165 30.37800018 -23.3727996 26.551885 -26.76953125 22.64648438 C-28.70294135 20.63583753 -30.79871726 19.313532 -33.28515625 18.0703125 C-30.86791855 10.3045891 -23.12446703 4.38315546 -16.22265625 0.4453125 C-10.87434814 -1.82498972 -5.42511602 -2.20714122 0 0 Z " fill="#68B5E2" transform="translate(116.28515625,60.9296875)"/>
<path d="M0 0 C0.99 0.99 0.99 0.99 2 2 C1.28158936 2.09498779 0.56317871 2.18997559 -0.17700195 2.2878418 C-13.67423985 4.10161051 -26.90694223 6.09407867 -40.01171875 9.8515625 C-40.6773584 10.03960449 -41.34299805 10.22764648 -42.02880859 10.42138672 C-43.35326338 10.81016029 -44.6691913 11.22912978 -45.97509766 11.67626953 C-51.59550898 13.43619631 -55.51382863 12.507603 -61 10.625 C-61.77472656 10.3775 -62.54945313 10.13 -63.34765625 9.875 C-65.23774459 9.26830498 -67.11980749 8.63670156 -69 8 C-66.50167289 5.00880564 -64.05619389 4.14145547 -60.375 3 C-59.39273438 2.690625 -58.41046875 2.38125 -57.3984375 2.0625 C-56.27695313 1.711875 -55.15546875 1.36125 -54 1 C-53.32445068 0.75282227 -52.64890137 0.50564453 -51.95288086 0.25097656 C-46.25451213 -1.80196898 -40.83728092 -2.74018084 -34.8125 -3.25 C-33.89557373 -3.33080811 -32.97864746 -3.41161621 -32.03393555 -3.49487305 C-21.20640328 -4.35040287 -10.16256638 -4.38838093 0 0 Z " fill="#64AAD9" transform="translate(198,109)"/>
<path d="M0 0 C1.12664063 -0.00515625 2.25328125 -0.0103125 3.4140625 -0.015625 C6.375 0.25 6.375 0.25 9.375 2.25 C9.5625 5.375 9.5625 5.375 9.375 8.25 C8.17875 7.92 6.9825 7.59 5.75 7.25 C-0.65875105 5.79393176 -7.09119456 6.08270484 -13.625 6.25 C-12.63057658 3.53793612 -11.97293944 2.44425594 -9.4140625 1.015625 C-6.17602891 0.12675303 -3.35626027 -0.01543108 0 0 Z " fill="#F9AB59" transform="translate(13.625,105.75)"/>
<path d="M0 0 C2.475 0.99 2.475 0.99 5 2 C5 3.98 5 5.96 5 8 C3.35 7.67 1.7 7.34 0 7 C0 4.69 0 2.38 0 0 Z " fill="#F4734A" transform="translate(18,106)"/>
<path d="M0 0 C1.65 0 3.3 0 5 0 C5 1.98 5 3.96 5 6 C2.03 5.505 2.03 5.505 -1 5 C-0.67 3.35 -0.34 1.7 0 0 Z " fill="#F68F55" transform="translate(13,106)"/>
<path d="M0 0 C2.475 0.495 2.475 0.495 5 1 C5 2.98 5 4.96 5 7 C3.68 7 2.36 7 1 7 C0.67 4.69 0.34 2.38 0 0 Z " fill="#F15A40" transform="translate(22,107)"/>
</svg>
