<?xml version="1.0" standalone="no"?><!DOCTYPE svg PUBLIC "-//W3C//DTD SVG 1.1//EN" "http://www.w3.org/Graphics/SVG/1.1/DTD/svg11.dtd"><svg t="1740674042454" class="icon" viewBox="0 0 1024 1024" version="1.1" xmlns="http://www.w3.org/2000/svg" p-id="3880" xmlns:xlink="http://www.w3.org/1999/xlink" width="200" height="200"><path d="M70.4 512c0-243.2 198.4-441.6 441.6-441.6 243.2 0 441.6 198.4 441.6 441.6 0 243.2-198.4 441.6-441.6 441.6-243.2 0-441.6-198.4-441.6-441.6M512 64C262.4 64 64 262.4 64 512s198.4 448 448 448 448-198.4 448-448-198.4-448-448-448m0 908.8C256 972.8 51.2 768 51.2 512S256 51.2 512 51.2C761.6 51.2 972.8 256 972.8 512c0 249.6-211.2 460.8-460.8 460.8M512 25.6C243.2 25.6 25.6 243.2 25.6 512c0 268.8 217.6 486.4 486.4 486.4 268.8 0 486.4-217.6 486.4-486.4C998.4 243.2 780.8 25.6 512 25.6m0 832c-25.6 25.6-96 44.8-166.4 32 6.4 0 19.2 6.4 32 6.4 44.8 6.4 83.2 6.4 115.2-6.4 38.4-12.8 76.8-44.8 108.8-70.4 38.4-32 70.4-64 102.4-64 25.6 0 38.4 6.4 38.4 19.2 0 19.2-25.6 19.2-19.2 6.4-6.4-6.4-12.8-6.4-19.2 0-6.4 6.4-6.4 19.2 0 32 6.4 6.4 19.2 6.4 19.2 6.4 19.2 0 38.4-6.4 44.8-19.2 6.4-6.4 6.4-19.2 6.4-38.4 0-12.8-12.8-25.6-32-38.4-32-19.2-96-12.8-140.8 32l-44.8 44.8c-6.4 19.2-25.6 38.4-44.8 57.6M108.8 556.8c-19.2 25.6-12.8 64 0 89.6 19.2 38.4 57.6 44.8 76.8 51.2-12.8 19.2-25.6 51.2-6.4 83.2l6.4 6.4c19.2 25.6 51.2 51.2 83.2 70.4 102.4 51.2 198.4 25.6 236.8 0l51.2-51.2c12.8-12.8 25.6-32 44.8-44.8 38.4-38.4 102.4-51.2 147.2-32 25.6 12.8 32 32 38.4 44.8 6.4 12.8 0 32-6.4 44.8-12.8 12.8-32 25.6-51.2 25.6 12.8 6.4 19.2 6.4 32 0 25.6-6.4 44.8-25.6 44.8-57.6 0-38.4-25.6-70.4-57.6-70.4h6.4c102.4 6.4 166.4-32 172.8-108.8 0-38.4-19.2-70.4-38.4-83.2 19.2 19.2 25.6 44.8 25.6 76.8-6.4 57.6-51.2 89.6-140.8 89.6H281.6c-38.4 0-76.8 12.8-83.2 57.6 0 12.8 0 25.6 12.8 32 6.4-19.2 19.2-12.8 32-12.8s25.6 0 38.4-12.8c6.4-6.4 6.4-12.8 6.4-25.6-6.4-12.8-19.2-12.8-25.6-6.4 0 12.8-6.4 19.2-19.2 19.2-6.4 0-25.6-12.8-12.8-32 6.4-12.8 19.2-19.2 64-19.2 32 0 236.8 6.4 364.8 6.4-19.2 6.4-32 6.4-38.4 12.8-19.2 12.8-57.6 38.4-70.4 64 0-25.6-19.2-57.6-44.8-64-25.6-6.4-51.2 0-64 12.8-6.4 0-6.4 6.4-6.4 12.8 12.8-6.4 25.6-12.8 38.4-12.8 19.2 0 38.4 6.4 51.2 25.6 12.8 19.2 12.8 38.4 6.4 57.6 0 0-6.4 6.4-6.4 0 0 0-6.4-6.4 0-6.4 0-12.8 0-32-12.8-44.8-12.8-12.8-25.6-25.6-44.8-25.6-19.2 0-32 6.4-44.8 19.2-6.4 6.4-6.4 12.8-6.4 19.2v6.4c0 12.8 12.8 25.6 19.2 32 12.8 6.4 25.6-6.4 19.2-12.8-6.4 0-12.8-6.4-12.8-12.8s6.4-12.8 19.2-12.8c6.4 0 19.2 6.4 19.2 19.2 0 12.8-6.4 25.6-19.2 32-12.8 6.4-32 19.2-83.2 12.8-51.2 0-96-19.2-115.2-32-6.4-6.4-19.2-12.8-25.6-19.2 12.8-6.4 25.6-12.8 32-25.6-12.8 12.8-25.6 12.8-38.4 12.8-19.2 0-32-6.4-44.8-19.2-6.4-12.8-12.8-25.6-12.8-38.4 6.4-38.4 38.4-64 89.6-64h492.8c83.2 0 128-25.6 128-76.8 0-38.4-19.2-83.2-64-96-25.6 12.8-51.2 19.2-64 19.2 0 0-6.4 0-6.4-6.4 0 0 0-6.4 6.4-6.4 12.8 0 38.4-6.4 57.6-19.2 12.8-6.4 19.2-12.8 44.8-25.6 38.4-25.6 64-70.4 38.4-121.6-19.2-38.4-70.4-44.8-96-25.6-12.8 12.8-19.2 32-12.8 44.8 6.4 12.8 19.2 19.2 25.6 25.6 0 6.4-6.4 6.4-6.4 12.8-25.6 25.6-64 25.6-121.6 25.6H665.6c-32 0-83.2 0-108.8 38.4 0 32-6.4 51.2 0 64 12.8 19.2 38.4 32 70.4 32 0 0 6.4 0 6.4 6.4 0 0 0 6.4-6.4 6.4-51.2 0-70.4-19.2-83.2-38.4 0-19.2 0-38.4 12.8-57.6 32-38.4 89.6-38.4 121.6-38.4H697.6c38.4 0 70.4 0 89.6-6.4H704c-76.8 0-160-6.4-179.2 64h-57.6c6.4-32-6.4-70.4-32-76.8 12.8 12.8 25.6 44.8 19.2 76.8-12.8 38.4-57.6 57.6-102.4 51.2 0 0-6.4 0-6.4-6.4 0 0 0-6.4 6.4-6.4 38.4 6.4 76.8-6.4 89.6-38.4 6.4-32 0-57.6-12.8-70.4-6.4-6.4-19.2-6.4-25.6 0-6.4 6.4-12.8 12.8-12.8 19.2 6.4-6.4 25.6 0 25.6 12.8s-12.8 25.6-32 19.2c-19.2 0-32-32-12.8-64 12.8-19.2 32-32 51.2-44.8-6.4-6.4-6.4-19.2 0-32 6.4-6.4 12.8-12.8 25.6-19.2h25.6l19.2 19.2v19.2c0 6.4-6.4 12.8-12.8 12.8h-19.2c-12.8 0-12.8 0-19.2-6.4V320c6.4-6.4 6.4-12.8 12.8-12.8h6.4v6.4s-6.4 0-6.4 6.4v6.4c0 6.4 6.4 6.4 6.4 6.4h12.8c6.4 0 6.4-6.4 12.8-12.8v-12.8c0-6.4-6.4-12.8-12.8-12.8h-19.2c-12.8 6.4-19.2 12.8-25.6 19.2v25.6c6.4 12.8 32 25.6 51.2 19.2 25.6-12.8 38.4-38.4 76.8-57.6 44.8-19.2 70.4-19.2 83.2-12.8 19.2 12.8 12.8 32 0 38.4-12.8 0-19.2-6.4-19.2-12.8-12.8 0-19.2 6.4-12.8 12.8 0 6.4 19.2 19.2 44.8 19.2 25.6-6.4 44.8-25.6 44.8-44.8 0-19.2-6.4-38.4-12.8-44.8h57.6c19.2 0 32 12.8 32 19.2 0 6.4-6.4 19.2-19.2 6.4-12.8 0-12.8 12.8-12.8 19.2 6.4 19.2 25.6 25.6 44.8 19.2 12.8-6.4 25.6-19.2 32-38.4 6.4-25.6 0-51.2-25.6-76.8-25.6-25.6-64-19.2-89.6-25.6-25.6 0-19.2-6.4-25.6-32-6.4-19.2-19.2-38.4-51.2-44.8-32 0-51.2 0-96 25.6-38.4 19.2-70.4 38.4-102.4 51.2-25.6 6.4-44.8 12.8-57.6 6.4-12.8-6.4-12.8-12.8-6.4-19.2 6.4-6.4 12.8-12.8 19.2-12.8-6.4-12.8-12.8-19.2-12.8-25.6 0 0-6.4 0-12.8 6.4l-12.8 6.4c-19.2 6.4-44.8 38.4-32 64 12.8 25.6 51.2 32 96 19.2 44.8-6.4 89.6-32 121.6-51.2 12.8-6.4 19.2-12.8 32-19.2 19.2-12.8 38.4-12.8 57.6-6.4 12.8 6.4 19.2 12.8 25.6 25.6 0 0 0 6.4-6.4 6.4h-6.4c0-12.8-12.8-19.2-19.2-19.2-6.4-12.8-25.6-12.8-44.8 0-12.8 6.4-19.2 12.8-32 19.2-32 19.2-76.8 44.8-121.6 57.6-51.2 12.8-96 6.4-108.8-25.6-12.8-19.2-6.4-44.8 6.4-57.6-6.4 0-6.4 6.4-12.8 12.8-19.2 19.2-12.8 44.8 0 57.6-25.6 6.4-51.2 6.4-76.8 25.6-32 12.8-57.6 32-76.8 51.2-19.2 19.2-25.6 38.4-25.6 64 0 19.2 0 38.4 6.4 51.2 6.4 12.8 25.6 25.6 44.8 25.6 19.2 0 38.4-6.4 44.8-19.2 6.4-6.4 12.8-19.2 12.8-25.6-6.4 12.8-12.8 25.6-25.6 32-25.6 12.8-51.2 0-64-19.2-19.2-25.6-6.4-64 25.6-96 12.8-19.2 70.4-64 153.6-64v12.8c-83.2 0-134.4 44.8-153.6 57.6-25.6 19.2-38.4 57.6-19.2 83.2 12.8 19.2 32 25.6 57.6 19.2 12.8-6.4 19.2-12.8 25.6-25.6 6.4-6.4 6.4-19.2 0-25.6-6.4-12.8-6.4-19.2-12.8-19.2l-12.8 12.8v25.6c-6.4 0-19.2 6.4-25.6-6.4-6.4-6.4 0-32 12.8-44.8 12.8-12.8 32-25.6 44.8-32 19.2-6.4 32-12.8 51.2-6.4-19.2 19.2-38.4 51.2-44.8 70.4-6.4 19.2-19.2 70.4 6.4 121.6 32 57.6 76.8 96 185.6 96h19.2C416 582.4 384 576 358.4 563.2c-57.6-25.6-83.2-70.4-89.6-128-6.4-89.6 57.6-140.8 128-160h6.4v6.4c-64 19.2-128 64-121.6 147.2 6.4 115.2 102.4 160 320 153.6h160c19.2 0 38.4 0 38.4 12.8 6.4 0 12.8-6.4 12.8-12.8s-12.8-19.2-25.6-19.2H550.4s-6.4 0-6.4-6.4c0 0 0-6.4 6.4-6.4h243.2c19.2 0 38.4 12.8 38.4 25.6 0 6.4 0 19.2-32 25.6H313.6c-51.2 12.8-102.4 19.2-121.6 6.4-12.8-6.4-19.2-19.2-12.8-32 6.4-6.4 25.6-6.4 25.6 6.4 12.8 6.4 25.6 0 25.6-12.8v-6.4c0-6.4-6.4-12.8-12.8-19.2-12.8-12.8-32-12.8-44.8-12.8-12.8 0-25.6 12.8-32 25.6-12.8 12.8-12.8 32-12.8 44.8 6.4 25.6 32 51.2 57.6 51.2 0 0 6.4 0 6.4 6.4 0 0 0 6.4-6.4 6.4-32-6.4-57.6-25.6-64-57.6-6.4-19.2 0-38.4 6.4-57.6 6.4-12.8 25.6-25.6 38.4-25.6 12.8 0 32 0 44.8 6.4-6.4-6.4-19.2-12.8-25.6-19.2-32 0-64 12.8-76.8 44.8m499.2-345.6c-12.8 0-38.4 0-70.4-12.8 19.2-12.8 38.4-32 51.2-32 12.8 0 32 0 32 12.8l-6.4-6.4c-12.8-6.4-19.2 0-25.6 6.4 0 12.8 6.4 25.6 19.2 32 0-6.4 6.4 0 6.4-6.4 0 6.4-6.4 6.4-6.4 6.4m89.6 288c12.8-12.8 25.6-19.2 38.4-6.4 12.8 6.4 12.8 25.6 6.4 32-6.4 6.4-19.2 12.8-25.6 6.4v-6.4h6.4c6.4 6.4 12.8 0 12.8 0 6.4-6.4 6.4-19.2-6.4-19.2-6.4-12.8-19.2-6.4-32-6.4-6.4 19.2-25.6 25.6-38.4 19.2-12.8-6.4-19.2-25.6-6.4-38.4 0-6.4 6.4-6.4 12.8-12.8h19.2v6.4h-6.4-12.8c-6.4 0-6.4 6.4-6.4 6.4-6.4 6.4 0 19.2 6.4 25.6 12.8 12.8 25.6 6.4 32-6.4m19.2-25.6c-6.4-6.4-6.4-6.4 0-6.4 32 0 64-6.4 89.6-19.2 32-12.8 57.6-32 64-51.2 12.8-19.2 6.4-38.4 0-51.2-6.4-12.8-25.6-19.2-38.4-19.2-12.8 6.4-12.8 19.2-12.8 25.6 6.4 6.4 12.8 12.8 19.2 6.4l6.4-6.4v-6.4-6.4h6.4v12.8c0 6.4-6.4 6.4-12.8 12.8-12.8 6.4-25.6 0-32-12.8-6.4-12.8 0-32 12.8-38.4 19.2-6.4 38.4 6.4 51.2 19.2 6.4 12.8 12.8 38.4 0 57.6-12.8 19.2-32 38.4-70.4 51.2-19.2 25.6-44.8 32-83.2 32" fill="#C99630" p-id="3881"></path></svg>