<?xml version="1.0" standalone="no"?><!DOCTYPE svg PUBLIC "-//W3C//DTD SVG 1.1//EN" "http://www.w3.org/Graphics/SVG/1.1/DTD/svg11.dtd"><svg t="1740673946764" class="icon" viewBox="0 0 1024 1024" version="1.1" xmlns="http://www.w3.org/2000/svg" p-id="2099" xmlns:xlink="http://www.w3.org/1999/xlink" width="200" height="200"><path d="M243.2 787.2c12.8 6.4 12.8 19.2 19.2 32 0 19.2-12.8 38.4-38.4 38.4-19.2 6.4-38.4-12.8-44.8-38.4 0-19.2 12.8-38.4 38.4-57.6 38.4-12.8 83.2-12.8 121.6 0 76.8 32 147.2 102.4 166.4 147.2-38.4-153.6-204.8-281.6-358.4-211.2C89.6 723.2 64 774.4 64 832c6.4 64 57.6 115.2 128 115.2 38.4 0 70.4-12.8 89.6-38.4 25.6-44.8 12.8-102.4-38.4-121.6z m531.2 0c-12.8 6.4-19.2 12.8-19.2 32s12.8 38.4 38.4 38.4c19.2 6.4 38.4-12.8 44.8-38.4 0-19.2-12.8-38.4-38.4-57.6-38.4-12.8-83.2-12.8-121.6 0-76.8 32-147.2 102.4-172.8 147.2C544 755.2 716.8 627.2 870.4 697.6c51.2 19.2 83.2 70.4 76.8 128-6.4 64-51.2 115.2-121.6 115.2-38.4 0-70.4-12.8-89.6-38.4-19.2-38.4-12.8-96 38.4-115.2zM505.6 390.4c140.8 0 256-70.4 256-160 0-70.4-70.4-128-166.4-153.6 115.2 25.6 198.4 96 198.4 172.8 0 96-108.8 160-204.8 172.8-57.6 6.4-64 6.4-83.2 25.6-6.4-19.2-19.2-19.2-70.4-25.6-96-12.8-204.8-83.2-204.8-172.8 0-76.8 83.2-147.2 198.4-172.8C326.4 102.4 256 160 256 230.4c0 89.6 115.2 160 249.6 160z m0 102.4c25.6-19.2 64-25.6 96-32C742.4 428.8 832 358.4 832 262.4c0-38.4-12.8-70.4-38.4-96-51.2-51.2-128-89.6-224-102.4 172.8 12.8 300.8 108.8 300.8 224 0 102.4-96 179.2-249.6 217.6-64 19.2-96 32-115.2 64-12.8-32-44.8-38.4-108.8-64C243.2 467.2 147.2 390.4 147.2 288c0-115.2 128-204.8 300.8-224-89.6 12.8-166.4 51.2-217.6 102.4-25.6 25.6-38.4 64-38.4 96 0 96 89.6 166.4 230.4 198.4 25.6 6.4 64 12.8 83.2 32z m0 153.6c32-51.2 96-76.8 153.6-96 19.2-6.4 25.6-12.8 44.8-12.8 121.6-44.8 198.4-128 204.8-224 0-134.4-160-243.2-358.4-262.4C800 64 1004.8 204.8 1004.8 364.8c0 108.8-76.8 204.8-224 262.4-64 19.2-230.4 70.4-275.2 256-38.4-179.2-204.8-236.8-268.8-256-147.2-64-224-153.6-224-262.4 0-160 204.8-294.4 454.4-313.6-198.4 12.8-358.4 121.6-358.4 256 6.4 96 83.2 179.2 198.4 224 19.2 6.4 25.6 12.8 44.8 12.8 64 25.6 128 51.2 153.6 102.4z m-89.6-448c0-51.2 38.4-96 96-96s96 38.4 96 96c0 51.2-38.4 96-96 96s-96-38.4-96-96z" fill="#DD4012" p-id="2100"></path></svg>