<?xml version="1.0" standalone="no"?><!DOCTYPE svg PUBLIC "-//W3C//DTD SVG 1.1//EN" "http://www.w3.org/Graphics/SVG/1.1/DTD/svg11.dtd"><svg t="1740674069425" class="icon" viewBox="0 0 1107 1024" version="1.1" xmlns="http://www.w3.org/2000/svg" p-id="4765" xmlns:xlink="http://www.w3.org/1999/xlink" width="216.2109375" height="200"><path d="M932.81 329.211a161.71 161.71 0 0 0-118.196 112.266 353.898 353.898 0 0 1-32.066 93.784 177.225 177.225 0 0 1-86.06 75.028c-58.202 27.859-56.547 19.377-93.647 40.479a121.23 121.23 0 0 0-48.961 45.582c-33.79-44.686-52.409-47.237-112.335-71.718a253.77 253.77 0 0 1-97.922-61.65 242.047 242.047 0 0 1-48.064-104.68 199.499 199.499 0 0 0-28.756-66.407 138.056 138.056 0 0 0-118.127-66.408A238.047 238.047 0 0 0 0 361.622a111.3 111.3 0 0 1 61.374 30.342 225.427 225.427 0 0 1 38.824 101.37 269.148 269.148 0 0 0 60.201 108.542 275.768 275.768 0 0 0 211.015 60.821C510.711 651.664 553.811 720.9 553.811 720.9a187.5 187.5 0 0 1 164.605-59.926 348.45 348.45 0 0 0 141.78-13.515 169.364 169.364 0 0 0 90.337-51.444 272.32 272.32 0 0 0 61.65-121.575 227.29 227.29 0 0 1 26.204-73.442 97.646 97.646 0 0 1 64.96-39.72 228.944 228.944 0 0 0-170.537-32.066z" fill="#FE0000" p-id="4766"></path><path d="M553.742 642.423a2.069 2.069 0 0 0 0-1.034 2.069 2.069 0 0 0 0 1.034zM449.958 585.877c92.82 35.238 102.819 51.512 103.784 55.512 0.552-4 8.965-20.136 99.646-54.685 106.404-40.547 116.541-111.438 116.541-111.438a135.298 135.298 0 0 0-70.959-150.4 141.16 141.16 0 0 1 43.1 124.265 158.95 158.95 0 0 1-108.06 105.507c-82.888 25.791-81.027 36.41-80.337 37.79-1.172-1.724-12.688-16.274-79.303-36.135a144.125 144.125 0 0 1-112.197-140.125 147.09 147.09 0 0 1 44.686-91.301 136.677 136.677 0 0 0-71.718 146.124s5.931 73.442 114.817 114.817zM895.71 897.365a465.336 465.336 0 0 0-52.409-129.988A161.571 161.571 0 0 0 707.453 683.8a179.983 179.983 0 0 0-153.641 70.062 159.985 159.985 0 0 0-73.786-56.27 169.777 169.777 0 0 0-173.846 20.274 228.255 228.255 0 0 0-78.82 127.16 237.564 237.564 0 0 1-54.616 114.266c-16.826 25.86-84.958 31.514-84.958 31.514a312.592 312.592 0 0 0 63.029 21.93 320.867 320.867 0 0 0 198.671-19.103 252.804 252.804 0 0 0 123.85-145.228c14.62-36.548 21.378-81.578 80.476-83.854s80.2 87.371 80.2 87.371a260.252 260.252 0 0 0 186.534 163.64 274.664 274.664 0 0 0 195.016-25.308 134.677 134.677 0 0 1-119.85-92.888z m-465.612-168.26c-56.34 8.137-45.789 33.583-45.789 33.583s4.759 22.067 27.101 9.723c10.344-5.723 2.414-24.135 2.414-24.135a25.86 25.86 0 0 1 17.93 14.55 36.204 36.204 0 0 1-36.55 50.133c-61.58 1.655-55.718-51.512-55.718-51.512s0-54.892 81.923-53.995a146.538 146.538 0 0 1 118.196 53.995 167.02 167.02 0 0 0-109.507-32.41z m280.664 83.854a36.204 36.204 0 0 1-36.548-50.133 25.86 25.86 0 0 1 17.998-14.62s-7.93 18.482 2.414 24.205c22.342 12.413 27.1-9.654 27.1-9.654s10.551-25.515-45.788-33.652a167.02 167.02 0 0 0-109.508 32.41 146.538 146.538 0 0 1 118.196-54.063c81.924-0.897 81.924 53.995 81.924 53.995s5.861 53.167-55.719 51.512z" fill="#FE0000" p-id="4767"></path><path d="M509.884 538.571c41.375 14.344 42.34 21.998 42.34 21.998 5.173-8.482 39.515-21.102 39.515-21.102 160.398-50.685 85.302-214.6 85.302-214.6a525.676 525.676 0 0 0-50.685-97.785A928.121 928.121 0 0 1 553.811 0a772.825 772.825 0 0 1-65.856 214.463c-9.31 11.723-54.892 102.06-54.892 102.06-63.304 156.192 35.445 207.704 76.821 222.048z m44.34-105.783a41.238 41.238 0 1 1-41.237 41.237 41.238 41.238 0 0 1 41.238-41.237z" fill="#FE0000" p-id="4768"></path></svg>