<?xml version="1.0" standalone="no"?><!DOCTYPE svg PUBLIC "-//W3C//DTD SVG 1.1//EN" "http://www.w3.org/Graphics/SVG/1.1/DTD/svg11.dtd"><svg t="1740673987594" class="icon" viewBox="0 0 1024 1024" version="1.1" xmlns="http://www.w3.org/2000/svg" p-id="3143" xmlns:xlink="http://www.w3.org/1999/xlink" width="200" height="200"><path d="M390.4 288s-12.8 44.8-51.2 25.6c-32-19.2-12.8-57.6 6.4-64 19.2-6.4 32-6.4 76.8 12.8 0 0 44.8 19.2 76.8 19.2 0 0-57.6-19.2-57.6-32s19.2-25.6 32-19.2c0 0 0-57.6 57.6-57.6 96 0 160 57.6 281.6-25.6 0 0-25.6 51.2-51.2 83.2 0 0 153.6 19.2 249.6-57.6 0 0-83.2 140.8-320 115.2 0 0-89.6 57.6-224 32 0 0 64 38.4 179.2 12.8 0 0-172.8 134.4-256 32 0 0 64 44.8 134.4 0 0 0-70.4-6.4-96-19.2-25.6-12.8-76.8 0-57.6 38.4 0 0-32-12.8-25.6-44.8 44.8-6.4 44.8-32 44.8-51.2z m243.2-19.2s-64-38.4-89.6-57.6c-32-19.2-51.2 6.4-51.2 12.8s0 19.2 12.8 25.6c6.4-6.4 19.2-6.4 12.8-19.2 0-6.4-6.4-6.4 0-6.4 0 0 32 0 25.6 44.8 44.8 6.4 89.6 6.4 89.6 0zM384 409.6s-6.4 70.4 51.2 64c57.6 0 57.6-44.8 153.6-64 0 0-44.8-6.4-121.6 19.2S384 409.6 384 409.6zM710.4 320s166.4 0 256-76.8c0 0-64 89.6-211.2 108.8 0 0 64 6.4 140.8-44.8 0 0-64 64-185.6 76.8 0 0 70.4 0 153.6-32 0 0-44.8 32-140.8 57.6 0 0 51.2-6.4 89.6-12.8 0 0-121.6 57.6-217.6 64C640 422.4 697.6 326.4 710.4 320z m300.8 44.8S876.8 422.4 614.4 480 153.6 672 19.2 908.8c0 0 185.6-204.8 512-262.4 0 0 236.8-51.2 345.6-140.8 0 0-76.8 38.4-121.6 38.4 0 0 153.6-57.6 179.2-76.8 0 0-179.2 64-249.6 76.8 0 0 236.8-70.4 275.2-128 0 0-83.2 44.8-192 76.8L556.8 544c96-44.8 179.2-57.6 230.4-70.4 64-19.2 128-44.8 224-108.8z m-704 390.4s83.2-44.8 288-102.4c198.4-57.6 262.4-115.2 288-140.8 0 0-44.8 57.6-147.2 108.8 0 0 70.4-32 108.8-64 0 0-57.6 96-262.4 140.8-64 12.8-121.6 25.6-160 32-96 19.2-115.2 25.6-115.2 25.6z m-64 64s44.8-32 198.4-64c153.6-25.6 224-64 224-64s-44.8 32-108.8 51.2c0 0 51.2-6.4 70.4-12.8-38.4 25.6-108.8 51.2-179.2 64-44.8 12.8-172.8 19.2-204.8 25.6z" fill="#DC3F13" p-id="3144"></path></svg>