<?xml version="1.0" standalone="no"?><!DOCTYPE svg PUBLIC "-//W3C//DTD SVG 1.1//EN" "http://www.w3.org/Graphics/SVG/1.1/DTD/svg11.dtd"><svg t="1740674031583" class="icon" viewBox="0 0 1024 1024" version="1.1" xmlns="http://www.w3.org/2000/svg" p-id="3585" xmlns:xlink="http://www.w3.org/1999/xlink" width="200" height="200"><path d="M390.4 780.8h12.8-12.8z m64-19.2z m44.8-12.8l-6.4 6.4h-6.4-12.8-6.4-6.4 12.8c19.2-6.4 25.6-6.4 25.6-6.4z m-32 0c-6.4 0-6.4 0 0 0 0-6.4 0-6.4 0 0h6.4v6.4c0-6.4-6.4-6.4-6.4-6.4z m-64-134.4c-12.8-32 12.8-51.2 44.8-44.8 19.2-25.6 57.6-19.2 70.4 6.4 25.6 6.4 25.6 32 19.2 44.8-12.8 12.8-25.6 19.2-44.8 19.2-19.2 0-32-19.2-19.2-32 0 19.2 12.8 12.8 19.2 12.8 6.4-6.4 6.4-12.8 0-19.2-6.4-12.8-57.6-12.8-64 12.8 0 25.6 25.6 38.4 83.2 32 12.8 0 25.6-6.4 38.4-12.8 25.6-6.4 44.8-19.2 70.4-19.2 32-6.4 64-6.4 96 0-89.6 12.8-140.8 38.4-185.6 44.8-38.4 25.6-76.8 19.2-89.6 6.4-32 6.4-51.2-19.2-38.4-51.2z m499.2-198.4z m6.4-6.4c0 6.4 0 6.4-6.4 6.4H896l-6.4 12.8-6.4 6.4c0 12.8-12.8 12.8-12.8 12.8s-6.4 0-6.4 6.4c6.4 0 6.4 0 12.8-6.4 0 0-6.4 0-6.4 6.4-6.4 0-12.8 6.4-12.8 6.4s-6.4 0-6.4 6.4c-6.4 0-6.4 0-6.4 6.4h-6.4-6.4c-64 19.2-140.8 6.4-217.6 12.8-102.4 19.2-179.2 44.8-243.2 76.8 32-38.4 134.4-76.8 217.6-83.2 115.2-19.2 224 0 320-70.4z m51.2-96V320c-6.4-6.4-6.4-6.4 0-6.4z m44.8-102.4c0 6.4 0 6.4 0 0 0 6.4-6.4 6.4-6.4 12.8 0 0 0 6.4-6.4 6.4h-6.4 6.4v-6.4s0-6.4 6.4-6.4l6.4-6.4z m0-51.2zM268.8 518.4c38.4-115.2 198.4-192 320-211.2 115.2-19.2 192-6.4 281.6-51.2h6.4l12.8-6.4h6.4s6.4-6.4 12.8-6.4c0 0 0-6.4 6.4-6.4h6.4l6.4-6.4s6.4 0 6.4-6.4h6.4l12.8-12.8h6.4c6.4 0 6.4-6.4 12.8-12.8l6.4-6.4v-6.4h6.4v-6.4s0-6.4 6.4-6.4c0-6.4 6.4-12.8 12.8-12.8l6.4-6.4v12.8h-6.4 6.4v6.4h-6.4l6.4 6.4v6.4c-6.4 0-6.4 0 0 6.4h6.4v12.8l-6.4 6.4c-6.4 6.4-6.4 6.4-6.4 12.8v6.4h-6.4c0 6.4-6.4 6.4-6.4 12.8l-6.4 6.4-6.4 6.4s6.4 0 6.4-6.4l6.4-6.4 6.4-6.4c0-6.4 6.4-6.4 6.4-12.8l6.4-6.4h6.4l-6.4 12.8c0 6.4-6.4 6.4-6.4 6.4l-6.4 6.4c0 6.4-6.4 6.4-6.4 12.8 6.4-6.4 12.8-6.4 19.2-12.8l6.4-6.4s6.4 0 0 6.4v6.4s-6.4 0-6.4 6.4-6.4 6.4-12.8 6.4v6.4h-6.4 6.4v-6.4h6.4l6.4-6.4s0-6.4 6.4-6.4c-6.4 0-6.4 6.4-12.8 6.4s-6.4 6.4-12.8 12.8c0 0-6.4 6.4-12.8 6.4l-6.4 6.4h-6.4-6.4l-6.4 6.4h-6.4-6.4c-64 32-134.4 44.8-204.8 44.8-147.2 19.2-230.4 32-307.2 64-57.6 19.2-108.8 57.6-160 121.6z m672-236.8h0zM268.8 569.6c32-89.6 140.8-153.6 262.4-179.2 83.2-12.8 166.4-19.2 243.2-25.6 38.4 0 70.4-12.8 102.4-19.2 0 0 6.4 0 6.4-6.4h12.8l6.4-6.4 6.4-6.4h6.4V320c6.4 0 6.4 0 6.4-6.4 6.4 0 12.8-6.4 19.2-12.8h12.8l6.4-6.4h6.4l-6.4 6.4s-6.4 0-6.4 6.4h0V320h-12.8v6.4h6.4c-6.4 0-6.4 6.4-12.8 6.4s-6.4 6.4-12.8 6.4h-6.4-6.4s0 6.4-6.4 6.4c-6.4 6.4-12.8 6.4-19.2 12.8h-6.4 6.4l6.4-6.4v-6.4h12.8s12.8-6.4 19.2-6.4c0 0-6.4 0-6.4 6.4l-12.8 6.4s-6.4 0-12.8 6.4c0 0-6.4 0-6.4 6.4h-6.4l-6.4 19.2s-6.4 0-6.4 6.4h-6.4c-64 19.2-166.4 32-249.6 38.4 51.2 0 185.6-6.4 294.4-51.2-19.2 19.2-57.6 38.4-108.8 51.2-96 19.2-204.8 6.4-313.6 44.8-179.2 57.6-224 166.4-128 224-70.4-25.6-102.4-83.2-83.2-128z m70.4 211.2h-12.8c-83.2 6.4-179.2 0-198.4-83.2-19.2-76.8 25.6-115.2 32-172.8 12.8-70.4-44.8-160-147.2-179.2 76.8 0 172.8 57.6 192 134.4 19.2 70.4-6.4 115.2 25.6 166.4 64 102.4 275.2 57.6 332.8 38.4-6.4 19.2-115.2 64-249.6 38.4 12.8 6.4 38.4 12.8 108.8 12.8H448c25.6 0 44.8-6.4 64-12.8-6.4 6.4-19.2 6.4-38.4 12.8-12.8 6.4-57.6 6.4-64 12.8H448c6.4 0 0 0 0 0h6.4v6.4H435.2h-6.4v6.4H441.6h-6.4-6.4-6.4-6.4-6.4-6.4H384h-25.6-6.4c0 19.2-6.4 19.2-12.8 19.2zM153.6 345.6c6.4 25.6-25.6 25.6-51.2 12.8 25.6 0 44.8 6.4 51.2-12.8z m-83.2 0c38.4 0 64-12.8 76.8-32 6.4 38.4-32 44.8-76.8 32z m-12.8 0c19.2-6.4 38.4-12.8 38.4-25.6 12.8 25.6-25.6 25.6-38.4 25.6z" fill="#DC3F13" p-id="3586"></path></svg>