<?xml version="1.0" standalone="no"?><!DOCTYPE svg PUBLIC "-//W3C//DTD SVG 1.1//EN" "http://www.w3.org/Graphics/SVG/1.1/DTD/svg11.dtd"><svg t="1740673991254" class="icon" viewBox="0 0 1024 1024" version="1.1" xmlns="http://www.w3.org/2000/svg" p-id="3290" xmlns:xlink="http://www.w3.org/1999/xlink" width="200" height="200"><path d="M822.144 727.142c-82.918 6.938-158.848-27.699-117.453-110.822 41.447-76.211 241.818-173.158 310.938-200.832H642.534c-6.886 0-27.622 0-34.508 27.725-6.938 20.787-41.498 103.885-117.479 131.584C400.742 602.522 324.736 554.01 207.283 464c-41.446-34.611-48.358-41.549-89.805-34.611-20.71 6.912-69.094-6.938-82.892-13.875H0.026s82.892 13.875 248.78 131.61c62.132 41.574 172.75 131.583 283.239 180.095 124.365 55.373 304 83.072 469.862-34.662v-6.938c-0.128 6.887-96.845 41.523-179.763 41.523z" fill="#2AA1FF" p-id="3291"></path></svg>