<?xml version="1.0" standalone="no"?><!DOCTYPE svg PUBLIC "-//W3C//DTD SVG 1.1//EN" "http://www.w3.org/Graphics/SVG/1.1/DTD/svg11.dtd"><svg t="1740674053795" class="icon" viewBox="0 0 1024 1024" version="1.1" xmlns="http://www.w3.org/2000/svg" p-id="4321" xmlns:xlink="http://www.w3.org/1999/xlink" width="200" height="200"><path d="M755.2 774.4c6.4 0 6.4 0 0 0 0-6.4 0-12.8-6.4-19.2l-6.4-6.4c-128-32-249.6-76.8-249.6-121.6 0-83.2 211.2-166.4 454.4-198.4 6.4 0 12.8 0 19.2-6.4l25.6-25.6c6.4-6.4 0-6.4 0-6.4h-19.2c-313.6 19.2-627.2 89.6-652.8 192 0 6.4-6.4 19.2-6.4 25.6 0 102.4 211.2 140.8 441.6 166.4z m0 0" fill="#0B308E" p-id="4322"></path><path d="M620.8 896c-166.4-44.8-326.4-179.2-300.8-307.2 38.4-192 288-371.2 601.6-460.8 6.4 0 12.8-6.4 0-6.4H492.8c-76.8 0-89.6 12.8-121.6 51.2C358.4 192 230.4 371.2 172.8 448c-6.4 12.8-19.2 19.2-44.8 19.2H25.6c121.6 345.6 256 428.8 390.4 428.8h204.8c6.4 6.4 6.4 0 0 0z m0 0" fill="#E50012" p-id="4323"></path></svg>