<?xml version="1.0" standalone="no"?><!DOCTYPE svg PUBLIC "-//W3C//DTD SVG 1.1//EN" "http://www.w3.org/Graphics/SVG/1.1/DTD/svg11.dtd"><svg t="1740673974732" class="icon" viewBox="0 0 1024 1024" version="1.1" xmlns="http://www.w3.org/2000/svg" p-id="2544" xmlns:xlink="http://www.w3.org/1999/xlink" width="200" height="200"><path d="M518.4 32c268.8 0 480 217.6 480 480s-217.6 480-480 480C249.6 992 38.4 774.4 38.4 512S249.6 32 518.4 32z" fill="#FFFFFF" p-id="2545"></path><path d="M249.6 787.2c102.4 0 166.4-64 166.4-153.6 0-70.4-44.8-89.6-64-89.6-32 6.4-57.6 19.2-57.6 51.2 0 44.8 57.6 64 57.6 64-57.6 12.8-128-38.4-121.6-96 6.4-76.8 64-102.4 96-121.6 38.4-19.2 140.8-51.2 198.4-70.4 115.2-32 256-179.2 300.8-230.4C742.4 70.4 633.6 32 518.4 32 249.6 32 32 243.2 32 512c0 25.6 0 44.8 6.4 70.4 32 102.4 115.2 204.8 211.2 204.8z" fill="#E60012" p-id="2546"></path><path d="M825.6 147.2c-128 256-294.4 332.8-294.4 332.8 153.6-44.8 320-204.8 320-204.8-128 211.2-320 300.8-320 300.8 172.8-38.4 288-147.2 288-147.2C729.6 601.6 512 659.2 512 659.2c185.6-32 243.2-76.8 243.2-76.8-51.2 89.6-256 134.4-256 134.4 121.6-6.4 198.4-38.4 198.4-38.4-76.8 70.4-185.6 70.4-230.4 76.8 0 0 64 25.6 185.6-19.2-64 64-217.6 57.6-217.6 57.6 38.4 19.2 147.2 0 147.2 0-57.6 38.4-179.2 32-179.2 32 44.8 19.2 121.6 6.4 121.6 6.4-57.6 32-166.4 19.2-166.4 19.2 38.4 25.6 140.8 6.4 140.8 6.4-89.6 32-179.2 12.8-179.2 12.8 19.2 12.8 83.2 19.2 83.2 19.2-12.8 6.4-25.6 6.4-51.2 6.4-57.6 0-102.4-12.8-134.4-38.4-51.2-32-83.2-70.4-96-89.6-32-38.4-51.2-76.8-64-115.2 57.6 204.8 243.2 352 460.8 352 268.8 0 480-217.6 480-480 0-160-70.4-288-172.8-377.6z" fill="#0068B7" p-id="2547"></path></svg>