<?xml version="1.0" standalone="no"?><!DOCTYPE svg PUBLIC "-//W3C//DTD SVG 1.1//EN" "http://www.w3.org/Graphics/SVG/1.1/DTD/svg11.dtd"><svg t="1740673977524" class="icon" viewBox="0 0 1024 1024" version="1.1" xmlns="http://www.w3.org/2000/svg" p-id="2693" xmlns:xlink="http://www.w3.org/1999/xlink" width="200" height="200"><path d="M4.730679 0h883.347896v1018.35855H4.730679z" fill="#2E2B5A" p-id="2694"></path><path d="M704.588768 1023.956098Q489.302696 797.046882 470.139327 621.788763t284.267616-64.821797q-55.558404-196.70441 0-350.384531T886.300531 0h-208.645845Q567.141535 107.176574 518.640431 206.582435t-61.880341 206.450728q-69.519347-109.34974-123.815558-109.34974c-54.307188 0-102.424146 43.254775-131.454565 109.34974-1.229265 2.787798 43.902334-8.571931 58.905957 7.606079s14.904843 50.334026 10.229244 136.3387 8.989003 215.648267 62.308388 306.218782q53.319385 90.537589 137.194795 160.803276z" fill="#FFFFFF" p-id="2695"></path><path d="M877.092016 0h142.133808v1018.35855H699.090001Q485.362461 792.524942 466.286897 617.936333q-19.152393-175.258119 284.267616-64.821797-55.558404-196.70441 0-350.384531Q804.19219 54.460846 877.092016 0z" fill="#DE4B16" p-id="2696"></path></svg>