<?xml version="1.0" standalone="no"?><!DOCTYPE svg PUBLIC "-//W3C//DTD SVG 1.1//EN" "http://www.w3.org/Graphics/SVG/1.1/DTD/svg11.dtd"><svg t="1740674075263" class="icon" viewBox="0 0 1024 1024" version="1.1" xmlns="http://www.w3.org/2000/svg" p-id="5061" xmlns:xlink="http://www.w3.org/1999/xlink" width="200" height="200"><path d="M166.4 755.2c-70.4-12.8-89.6-38.4-134.4-76.8 6.4 89.6 134.4 160 243.2 172.8 44.8 6.4 96 6.4 140.8 0 172.8-25.6 409.6-179.2 416-358.4v-38.4c-6.4-19.2-25.6-44.8-51.2-57.6-12.8-6.4-25.6-6.4-44.8-6.4-204.8-12.8-249.6 352-492.8 371.2-25.6 0-51.2 0-76.8-6.4z" fill="#0090D1" p-id="5062"></path><path d="M198.4 569.6c12.8 32 51.2 64 83.2 64h32c204.8 0 204.8-377.6 512-371.2 115.2 12.8 121.6 44.8 166.4 76.8-25.6-108.8-179.2-172.8-320-172.8-198.4 0-454.4 166.4-473.6 345.6-6.4 19.2-6.4 38.4 0 57.6z" fill="#DE0515" p-id="5063"></path></svg>