<?xml version="1.0" standalone="no"?><!DOCTYPE svg PUBLIC "-//W3C//DTD SVG 1.1//EN" "http://www.w3.org/Graphics/SVG/1.1/DTD/svg11.dtd"><svg t="1740673969416" class="icon" viewBox="0 0 1024 1024" version="1.1" xmlns="http://www.w3.org/2000/svg" p-id="2396" xmlns:xlink="http://www.w3.org/1999/xlink" width="200" height="200"><path d="M998.4 377.6L896 601.6c0 6.4-6.4 12.8-12.8 12.8s-12.8-6.4-12.8-12.8L768 390.4V384c-6.4-19.2-6.4-44.8-6.4-64 0-19.2 0-44.8 6.4-64L876.8 25.6c0-6.4 6.4-6.4 6.4-6.4s6.4 0 6.4 6.4l102.4 224 6.4 6.4c6.4 19.2 6.4 38.4 6.4 51.2 6.4 19.2 0 44.8-6.4 70.4zM563.2 115.2l-64 44.8 64-44.8 236.8 518.4c6.4 19.2 12.8 38.4 12.8 64s0 51.2-12.8 76.8l-108.8 224c0 6.4-6.4 12.8-12.8 12.8s-12.8-6.4-12.8-12.8L390.4 384c0-19.2-6.4-32-6.4-51.2v-19.2c0-32 6.4-64 19.2-89.6L512 19.2h217.6L563.2 115.2z m-153.6 128z m-12.8 38.4c0-6.4 0-6.4 0 0z m32-64s0-6.4 0 0c0-6.4 0 0 0 0z m44.8-38.4c-6.4 0-12.8 6.4-19.2 12.8l19.2-12.8zM435.2 640c6.4 19.2 12.8 38.4 12.8 57.6 0 25.6-6.4 51.2-12.8 76.8l-102.4 224v6.4c0 6.4-6.4 6.4-12.8 6.4s-12.8-6.4-12.8-12.8L25.6 390.4V384C19.2 364.8 19.2 345.6 19.2 320c0-19.2 0-44.8 6.4-64L134.4 32s0-6.4 6.4-6.4h6.4c6.4 0 6.4 0 6.4 6.4L435.2 640z m0 0" fill="#600D75" p-id="2397"></path><path d="M409.6 224L512 19.2h217.6L563.2 115.2l-89.6 64c-6.4 0-12.8 6.4-19.2 12.8-38.4 32-64 76.8-70.4 128 0-38.4 6.4-70.4 25.6-96z m0 0" fill="#E00614" p-id="2398"></path></svg>