<?xml version="1.0" standalone="no"?><!DOCTYPE svg PUBLIC "-//W3C//DTD SVG 1.1//EN" "http://www.w3.org/Graphics/SVG/1.1/DTD/svg11.dtd"><svg t="1740674048799" class="icon" viewBox="0 0 1024 1024" version="1.1" xmlns="http://www.w3.org/2000/svg" p-id="4174" xmlns:xlink="http://www.w3.org/1999/xlink" width="200" height="200"><path d="M512.026 0.87c31.462 0 62.13 2.637 91.878 7.885-130.406 112-229.3 179.38-167.168 445.466 67.405 292.326-86.605 316.851-214.4 438.502h524.262c89.216-70.912 198.656-168.934 172.39-320.333-20.12-118.17 33.28-175.923 79.617-219.724C1015.245 402.61 1024 455.987 1024 512c0 281.83-230.17 512-512 512C230.195 1024 0 793.83 0 512 0 230.195 230.195 0 512 0v0.87z m253.772 67.405a433.693 433.693 0 0 1 39.399 25.37c-48.999 37.632-101.53 77.03-140.903 122.547-163.686 189.875 63.002 399.949-122.547 582.886 53.402-119.91 48.999-222.31 21.888-393.856-18.406-114.636 79.642-245.913 203.06-336.947h-0.897z m142.67 120.781l26.24 34.125c-69.991 49.024-167.118 96.281-156.622 231.936 12.237 161.92-7.014 283.571-83.174 350.08 55.142-111.155 63.027-247.68 42.906-380.723-17.51-116.404 69.12-166.298 170.65-235.418z" fill="#3E4095" p-id="4175"></path></svg>