<?xml version="1.0" standalone="no"?><!DOCTYPE svg PUBLIC "-//W3C//DTD SVG 1.1//EN" "http://www.w3.org/Graphics/SVG/1.1/DTD/svg11.dtd"><svg t="1740673965491" class="icon" viewBox="0 0 1024 1024" version="1.1" xmlns="http://www.w3.org/2000/svg" p-id="2246" xmlns:xlink="http://www.w3.org/1999/xlink" width="200" height="200"><path d="M294.4 953.6l-12.8-6.4c-12.8-6.4-19.2-12.8-32-25.6-70.4-64-102.4-166.4-70.4-211.2C256 512 582.4 428.8 787.2 320c166.4-108.8 185.6-204.8 217.6-300.8-57.6 44.8-108.8 89.6-172.8 128-70.4 38.4-275.2 121.6-448 236.8-243.2 160-422.4 371.2-147.2 550.4 19.2 6.4 25.6 12.8 57.6 19.2z m-32 0c0-6.4 6.4 0 0 0z" fill="#E72425" p-id="2247"></path><path d="M313.6 966.4c-12.8-12.8-96-89.6-102.4-128-19.2-70.4 12.8-134.4 64-179.2C364.8 569.6 512 512 633.6 524.8l6.4 38.4 6.4 6.4-6.4-6.4c0-153.6 89.6-140.8 147.2-243.2-224 96-691.2 262.4-614.4 492.8 12.8 32 38.4 76.8 76.8 108.8 12.8 19.2 44.8 32 64 44.8z" fill="#FAE700" p-id="2248"></path><path d="M262.4 755.2v25.6c-6.4 12.8-6.4 6.4-6.4 25.6v25.6c-6.4 102.4 179.2 172.8 307.2 172.8-83.2-12.8-153.6-25.6-204.8-76.8l-6.4-6.4c-25.6-32-32-51.2-32-96 0-172.8 236.8-192 364.8-230.4-12.8-6.4-25.6-12.8-38.4-25.6-160 32-275.2 38.4-384 185.6z m230.4 236.8l-38.4-6.4 38.4 6.4z" fill="#485FA5" p-id="2249"></path><path d="M563.2 1004.8l-89.6-12.8C300.8 960 185.6 832 320 684.8 396.8 614.4 544 595.2 646.4 576c-6.4-12.8-6.4-32-6.4-57.6-121.6-6.4-275.2 51.2-364.8 134.4-51.2 51.2-83.2 108.8-64 179.2 44.8 147.2 185.6 179.2 352 172.8z" fill="#8CB55C" p-id="2250"></path></svg>